<?xml version="1.0" encoding="UTF-8" standalone="no"?>
<!DOCTYPE svg PUBLIC "-//W3C//DTD SVG 1.1//EN"
 "http://www.w3.org/Graphics/SVG/1.1/DTD/svg11.dtd">
<!-- Generated by graphviz version 14.1.1 (0)
 -->
<!-- Pages: 1 -->
<svg width="1589pt" height="1484pt"
 viewBox="0.00 0.00 1589.00 1484.00" xmlns="http://www.w3.org/2000/svg" xmlns:xlink="http://www.w3.org/1999/xlink">
<g id="graph0" class="graph" transform="scale(1 1) rotate(0) translate(4 1480)">
<polygon fill="white" stroke="none" points="-4,4 -4,-1480 1585.1,-1480 1585.1,4 -4,4"/>
<!-- exe:./bin/dune:0 -->
<g id="node1" class="node">
<title>exe:./bin/dune:0</title>
<polygon fill="none" stroke="black" points="401.41,-1476 349.83,-1458 401.41,-1440 453,-1458 401.41,-1476"/>
<text xml:space="preserve" text-anchor="middle" x="401.41" y="-1453.33" font-family="Times,serif" font-size="14.00">flewt</text>
</g>
<!-- lib:flewt -->
<g id="node2" class="node">
<title>lib:flewt</title>
<ellipse fill="none" stroke="black" cx="401.41" cy="-1386" rx="36.48" ry="18"/>
<text xml:space="preserve" text-anchor="middle" x="401.41" y="-1381.33" font-family="Times,serif" font-size="14.00">flewt</text>
</g>
<!-- exe:./bin/dune:0&#45;&gt;lib:flewt -->
<g id="edge1" class="edge">
<title>exe:./bin/dune:0&#45;&gt;lib:flewt</title>
<path fill="none" stroke="black" d="M401.41,-1439.7C401.41,-1432.41 401.41,-1423.73 401.41,-1415.54"/>
<polygon fill="black" stroke="black" points="404.91,-1415.62 401.41,-1405.62 397.91,-1415.62 404.91,-1415.62"/>
</g>
<!-- lib:flewt.compress -->
<g id="node4" class="node">
<title>lib:flewt.compress</title>
<ellipse fill="none" stroke="black" cx="169.41" cy="-1098" rx="87.51" ry="18"/>
<text xml:space="preserve" text-anchor="middle" x="169.41" y="-1093.33" font-family="Times,serif" font-size="14.00">flewt.compress</text>
</g>
<!-- lib:flewt&#45;&gt;lib:flewt.compress -->
<g id="edge2" class="edge">
<title>lib:flewt&#45;&gt;lib:flewt.compress</title>
<path fill="none" stroke="black" d="M367.61,-1378.67C338.8,-1371.7 297.94,-1357.86 271.41,-1332 212.09,-1274.17 184.94,-1175.97 174.66,-1127.63"/>
<polygon fill="black" stroke="black" points="178.12,-1127.06 172.7,-1117.95 171.26,-1128.44 178.12,-1127.06"/>
</g>
<!-- lib:flewt.delphin -->
<g id="node5" class="node">
<title>lib:flewt.delphin</title>
<ellipse fill="none" stroke="black" cx="916.41" cy="-1314" rx="76.99" ry="18"/>
<text xml:space="preserve" text-anchor="middle" x="916.41" y="-1309.33" font-family="Times,serif" font-size="14.00">flewt.delphin</text>
</g>
<!-- lib:flewt&#45;&gt;lib:flewt.delphin -->
<g id="edge3" class="edge">
<title>lib:flewt&#45;&gt;lib:flewt.delphin</title>
<path fill="none" stroke="black" d="M437.13,-1381.47C510.86,-1373.99 685.18,-1355.29 830.41,-1332 836.67,-1331 843.17,-1329.87 849.66,-1328.69"/>
<polygon fill="black" stroke="black" points="849.87,-1332.21 859.05,-1326.93 848.58,-1325.33 849.87,-1332.21"/>
</g>
<!-- lib:flewt.int_inf -->
<g id="node6" class="node">
<title>lib:flewt.int_inf</title>
<ellipse fill="none" stroke="black" cx="77.41" cy="-1314" rx="71.2" ry="18"/>
<text xml:space="preserve" text-anchor="middle" x="77.41" y="-1309.33" font-family="Times,serif" font-size="14.00">flewt.int_inf</text>
</g>
<!-- lib:flewt&#45;&gt;lib:flewt.int_inf -->
<g id="edge4" class="edge">
<title>lib:flewt&#45;&gt;lib:flewt.int_inf</title>
<path fill="none" stroke="black" d="M368.26,-1377.84C315.02,-1366.33 209.52,-1343.54 141.29,-1328.8"/>
<polygon fill="black" stroke="black" points="142.25,-1325.43 131.73,-1326.74 140.77,-1332.27 142.25,-1325.43"/>
</g>
<!-- lib:flewt.inverse -->
<g id="node7" class="node">
<title>lib:flewt.inverse</title>
<ellipse fill="none" stroke="black" cx="745.41" cy="-1314" rx="76.46" ry="18"/>
<text xml:space="preserve" text-anchor="middle" x="745.41" y="-1309.33" font-family="Times,serif" font-size="14.00">flewt.inverse</text>
</g>
<!-- lib:flewt&#45;&gt;lib:flewt.inverse -->
<g id="edge5" class="edge">
<title>lib:flewt&#45;&gt;lib:flewt.inverse</title>
<path fill="none" stroke="black" d="M434.71,-1378.22C490.68,-1366.83 604.68,-1343.64 677.94,-1328.73"/>
<polygon fill="black" stroke="black" points="678.3,-1332.23 687.4,-1326.8 676.9,-1325.37 678.3,-1332.23"/>
</g>
<!-- lib:flewt.netserver -->
<g id="node8" class="node">
<title>lib:flewt.netserver</title>
<ellipse fill="none" stroke="black" cx="401.41" cy="-1314" rx="88.04" ry="18"/>
<text xml:space="preserve" text-anchor="middle" x="401.41" y="-1309.33" font-family="Times,serif" font-size="14.00">flewt.netserver</text>
</g>
<!-- lib:flewt&#45;&gt;lib:flewt.netserver -->
<g id="edge6" class="edge">
<title>lib:flewt&#45;&gt;lib:flewt.netserver</title>
<path fill="none" stroke="black" d="M401.41,-1367.7C401.41,-1360.41 401.41,-1351.73 401.41,-1343.54"/>
<polygon fill="black" stroke="black" points="404.91,-1343.62 401.41,-1333.62 397.91,-1343.62 404.91,-1343.62"/>
</g>
<!-- lib:flewt.order -->
<g id="node9" class="node">
<title>lib:flewt.order</title>
<ellipse fill="none" stroke="black" cx="264.41" cy="-1026" rx="66.99" ry="18"/>
<text xml:space="preserve" text-anchor="middle" x="264.41" y="-1021.33" font-family="Times,serif" font-size="14.00">flewt.order</text>
</g>
<!-- lib:flewt&#45;&gt;lib:flewt.order -->
<g id="edge7" class="edge">
<title>lib:flewt&#45;&gt;lib:flewt.order</title>
<path fill="none" stroke="black" d="M370.99,-1376C349.16,-1367.96 320.81,-1354 304.41,-1332 280.24,-1299.57 285.41,-1283.45 285.41,-1243 285.41,-1243 285.41,-1243 285.41,-1169 285.41,-1129.31 277.29,-1084.05 271.14,-1055.51"/>
<polygon fill="black" stroke="black" points="274.58,-1054.84 268.99,-1045.84 267.75,-1056.37 274.58,-1054.84"/>
</g>
<!-- lib:flewt.server -->
<g id="node10" class="node">
<title>lib:flewt.server</title>
<ellipse fill="none" stroke="black" cx="579.41" cy="-1314" rx="71.73" ry="18"/>
<text xml:space="preserve" text-anchor="middle" x="579.41" y="-1309.33" font-family="Times,serif" font-size="14.00">flewt.server</text>
</g>
<!-- lib:flewt&#45;&gt;lib:flewt.server -->
<g id="edge8" class="edge">
<title>lib:flewt&#45;&gt;lib:flewt.server</title>
<path fill="none" stroke="black" d="M429.23,-1374.06C456.46,-1363.35 498.51,-1346.82 531.19,-1333.96"/>
<polygon fill="black" stroke="black" points="532.45,-1337.23 540.47,-1330.31 529.89,-1330.72 532.45,-1337.23"/>
</g>
<!-- lib:base -->
<g id="node3" class="node">
<title>lib:base</title>
<ellipse fill="lightgrey" stroke="black" cx="1153.41" cy="-18" rx="34.37" ry="18"/>
<text xml:space="preserve" text-anchor="middle" x="1153.41" y="-13.32" font-family="Times,serif" font-size="14.00">base</text>
</g>
<!-- lib:flewt.lambda -->
<g id="node17" class="node">
<title>lib:flewt.lambda</title>
<ellipse fill="none" stroke="black" cx="775.41" cy="-234" rx="76.46" ry="18"/>
<text xml:space="preserve" text-anchor="middle" x="775.41" y="-229.32" font-family="Times,serif" font-size="14.00">flewt.lambda</text>
</g>
<!-- lib:flewt.compress&#45;&gt;lib:flewt.lambda -->
<g id="edge14" class="edge">
<title>lib:flewt.compress&#45;&gt;lib:flewt.lambda</title>
<path fill="none" stroke="black" d="M169.41,-1079.51C169.41,-1052.71 169.41,-999.87 169.41,-955 169.41,-955 169.41,-955 169.41,-377 169.41,-270.29 289.25,-315.29 392.41,-288 493.23,-261.33 612.74,-247.51 691.12,-240.77"/>
<polygon fill="black" stroke="black" points="691.2,-244.27 700.87,-239.95 690.61,-237.3 691.2,-244.27"/>
</g>
<!-- lib:flewt.frontend -->
<g id="node20" class="node">
<title>lib:flewt.frontend</title>
<ellipse fill="none" stroke="black" cx="579.41" cy="-1242" rx="82.77" ry="18"/>
<text xml:space="preserve" text-anchor="middle" x="579.41" y="-1237.33" font-family="Times,serif" font-size="14.00">flewt.frontend</text>
</g>
<!-- lib:flewt.delphin&#45;&gt;lib:flewt.frontend -->
<g id="edge16" class="edge">
<title>lib:flewt.delphin&#45;&gt;lib:flewt.frontend</title>
<path fill="none" stroke="black" d="M860.39,-1301.36C802.3,-1289.3 711.39,-1270.41 648.79,-1257.41"/>
<polygon fill="black" stroke="black" points="649.82,-1254.05 639.32,-1255.44 648.4,-1260.9 649.82,-1254.05"/>
</g>
<!-- lib:flewt.ml_yacc_lib_mod -->
<g id="node21" class="node">
<title>lib:flewt.ml_yacc_lib_mod</title>
<ellipse fill="none" stroke="black" cx="1326.41" cy="-882" rx="122.76" ry="18"/>
<text xml:space="preserve" text-anchor="middle" x="1326.41" y="-877.33" font-family="Times,serif" font-size="14.00">flewt.ml_yacc_lib_mod</text>
</g>
<!-- lib:flewt.delphin&#45;&gt;lib:flewt.ml_yacc_lib_mod -->
<g id="edge17" class="edge">
<title>lib:flewt.delphin&#45;&gt;lib:flewt.ml_yacc_lib_mod</title>
<path fill="none" stroke="black" d="M934.86,-1296.15C959.86,-1271.36 1001.41,-1222.43 1001.41,-1171 1001.41,-1171 1001.41,-1171 1001.41,-1025 1001.41,-935.01 1107.34,-901.49 1198.25,-889.29"/>
<polygon fill="black" stroke="black" points="1198.55,-892.78 1208.04,-888.06 1197.68,-885.83 1198.55,-892.78"/>
</g>
<!-- lib:flewt.basis -->
<g id="node11" class="node">
<title>lib:flewt.basis</title>
<ellipse fill="none" stroke="black" cx="65.41" cy="-954" rx="65.41" ry="18"/>
<text xml:space="preserve" text-anchor="middle" x="65.41" y="-949.33" font-family="Times,serif" font-size="14.00">flewt.basis</text>
</g>
<!-- lib:flewt.int_inf&#45;&gt;lib:flewt.basis -->
<g id="edge31" class="edge">
<title>lib:flewt.int_inf&#45;&gt;lib:flewt.basis</title>
<path fill="none" stroke="black" d="M72.56,-1295.67C65.54,-1269.08 53.41,-1216.5 53.41,-1171 53.41,-1171 53.41,-1171 53.41,-1097 53.41,-1057.6 58.06,-1012.27 61.57,-983.63"/>
<polygon fill="black" stroke="black" points="65.01,-984.31 62.79,-973.95 58.06,-983.43 65.01,-984.31"/>
</g>
<!-- lib:flewt.inverse&#45;&gt;lib:flewt.frontend -->
<g id="edge32" class="edge">
<title>lib:flewt.inverse&#45;&gt;lib:flewt.frontend</title>
<path fill="none" stroke="black" d="M709.39,-1297.81C685.17,-1287.6 652.99,-1274.03 626.71,-1262.95"/>
<polygon fill="black" stroke="black" points="628.19,-1259.77 617.62,-1259.11 625.47,-1266.22 628.19,-1259.77"/>
</g>
<!-- lib:flewt.netserver&#45;&gt;lib:flewt.frontend -->
<g id="edge50" class="edge">
<title>lib:flewt.netserver&#45;&gt;lib:flewt.frontend</title>
<path fill="none" stroke="black" d="M440.92,-1297.46C467.25,-1287.11 502.07,-1273.42 530.21,-1262.35"/>
<polygon fill="black" stroke="black" points="531.2,-1265.72 539.22,-1258.8 528.64,-1259.21 531.2,-1265.72"/>
</g>
<!-- lib:flewt.order&#45;&gt;lib:flewt.lambda -->
<g id="edge53" class="edge">
<title>lib:flewt.order&#45;&gt;lib:flewt.lambda</title>
<path fill="none" stroke="black" d="M276.22,-1007.96C292.92,-982.16 321.41,-931.08 321.41,-883 321.41,-883 321.41,-883 321.41,-449 321.41,-288.34 556.91,-248.1 688.69,-238.15"/>
<polygon fill="black" stroke="black" points="688.7,-241.66 698.42,-237.46 688.2,-234.68 688.7,-241.66"/>
</g>
<!-- lib:flewt.server&#45;&gt;lib:flewt.frontend -->
<g id="edge58" class="edge">
<title>lib:flewt.server&#45;&gt;lib:flewt.frontend</title>
<path fill="none" stroke="black" d="M579.41,-1295.7C579.41,-1288.41 579.41,-1279.73 579.41,-1271.54"/>
<polygon fill="black" stroke="black" points="582.91,-1271.62 579.41,-1261.62 575.91,-1271.62 582.91,-1271.62"/>
</g>
<!-- lib:flewt.basis&#45;&gt;lib:base -->
<g id="edge9" class="edge">
<title>lib:flewt.basis&#45;&gt;lib:base</title>
<path fill="none" stroke="black" d="M72.09,-935.81C81.73,-909.4 98.41,-857.06 98.41,-811 98.41,-811 98.41,-811 98.41,-161 98.41,-57.6 904.65,-26.47 1107.52,-20.27"/>
<polygon fill="black" stroke="black" points="1107.51,-23.77 1117.4,-19.97 1107.3,-16.77 1107.51,-23.77"/>
</g>
<!-- lib:flewt.compat -->
<g id="node12" class="node">
<title>lib:flewt.compat</title>
<ellipse fill="none" stroke="black" cx="1205.41" cy="-90" rx="76.46" ry="18"/>
<text xml:space="preserve" text-anchor="middle" x="1205.41" y="-85.33" font-family="Times,serif" font-size="14.00">flewt.compat</text>
</g>
<!-- lib:flewt.compat&#45;&gt;lib:base -->
<g id="edge10" class="edge">
<title>lib:flewt.compat&#45;&gt;lib:base</title>
<path fill="none" stroke="black" d="M1192.83,-72.05C1186.67,-63.77 1179.13,-53.62 1172.3,-44.42"/>
<polygon fill="black" stroke="black" points="1175.2,-42.46 1166.43,-36.52 1169.58,-46.64 1175.2,-42.46"/>
</g>
<!-- lib:flewt.compile -->
<g id="node13" class="node">
<title>lib:flewt.compile</title>
<ellipse fill="none" stroke="black" cx="940.41" cy="-594" rx="78.57" ry="18"/>
<text xml:space="preserve" text-anchor="middle" x="940.41" y="-589.33" font-family="Times,serif" font-size="14.00">flewt.compile</text>
</g>
<!-- lib:flewt.solvers -->
<g id="node14" class="node">
<title>lib:flewt.solvers</title>
<ellipse fill="none" stroke="black" cx="1264.41" cy="-522" rx="75.41" ry="18"/>
<text xml:space="preserve" text-anchor="middle" x="1264.41" y="-517.33" font-family="Times,serif" font-size="14.00">flewt.solvers</text>
</g>
<!-- lib:flewt.compile&#45;&gt;lib:flewt.solvers -->
<g id="edge11" class="edge">
<title>lib:flewt.compile&#45;&gt;lib:flewt.solvers</title>
<path fill="none" stroke="black" d="M996.11,-580.97C1052.29,-568.83 1139,-550.1 1198.55,-537.23"/>
<polygon fill="black" stroke="black" points="1199.2,-540.67 1208.23,-535.14 1197.72,-533.83 1199.2,-540.67"/>
</g>
<!-- lib:flewt.subordinate -->
<g id="node15" class="node">
<title>lib:flewt.subordinate</title>
<ellipse fill="none" stroke="black" cx="1071.41" cy="-522" rx="99.61" ry="18"/>
<text xml:space="preserve" text-anchor="middle" x="1071.41" y="-517.33" font-family="Times,serif" font-size="14.00">flewt.subordinate</text>
</g>
<!-- lib:flewt.compile&#45;&gt;lib:flewt.subordinate -->
<g id="edge12" class="edge">
<title>lib:flewt.compile&#45;&gt;lib:flewt.subordinate</title>
<path fill="none" stroke="black" d="M970.47,-576.94C988.27,-567.43 1011.07,-555.25 1030.49,-544.87"/>
<polygon fill="black" stroke="black" points="1032.08,-547.98 1039.25,-540.18 1028.79,-541.81 1032.08,-547.98"/>
</g>
<!-- lib:flewt.typecheck -->
<g id="node16" class="node">
<title>lib:flewt.typecheck</title>
<ellipse fill="none" stroke="black" cx="863.41" cy="-522" rx="90.14" ry="18"/>
<text xml:space="preserve" text-anchor="middle" x="863.41" y="-517.33" font-family="Times,serif" font-size="14.00">flewt.typecheck</text>
</g>
<!-- lib:flewt.compile&#45;&gt;lib:flewt.typecheck -->
<g id="edge13" class="edge">
<title>lib:flewt.compile&#45;&gt;lib:flewt.typecheck</title>
<path fill="none" stroke="black" d="M921.77,-576.05C912.38,-567.52 900.83,-557.01 890.48,-547.61"/>
<polygon fill="black" stroke="black" points="893.02,-545.19 883.27,-541.05 888.31,-550.37 893.02,-545.19"/>
</g>
<!-- lib:flewt.domains -->
<g id="node22" class="node">
<title>lib:flewt.domains</title>
<ellipse fill="none" stroke="black" cx="1257.41" cy="-306" rx="81.72" ry="18"/>
<text xml:space="preserve" text-anchor="middle" x="1257.41" y="-301.32" font-family="Times,serif" font-size="14.00">flewt.domains</text>
</g>
<!-- lib:flewt.solvers&#45;&gt;lib:flewt.domains -->
<g id="edge59" class="edge">
<title>lib:flewt.solvers&#45;&gt;lib:flewt.domains</title>
<path fill="none" stroke="black" d="M1263.85,-503.85C1262.65,-467.14 1259.82,-380.66 1258.35,-335.53"/>
<polygon fill="black" stroke="black" points="1261.85,-335.63 1258.03,-325.75 1254.86,-335.85 1261.85,-335.63"/>
</g>
<!-- lib:flewt.modes -->
<g id="node43" class="node">
<title>lib:flewt.modes</title>
<ellipse fill="none" stroke="black" cx="937.41" cy="-450" rx="72.25" ry="18"/>
<text xml:space="preserve" text-anchor="middle" x="937.41" y="-445.32" font-family="Times,serif" font-size="14.00">flewt.modes</text>
</g>
<!-- lib:flewt.solvers&#45;&gt;lib:flewt.modes -->
<g id="edge60" class="edge">
<title>lib:flewt.solvers&#45;&gt;lib:flewt.modes</title>
<path fill="none" stroke="black" d="M1209.68,-509.28C1152.43,-497.03 1062.61,-477.8 1001.94,-464.81"/>
<polygon fill="black" stroke="black" points="1002.96,-461.45 992.44,-462.78 1001.49,-468.3 1002.96,-461.45"/>
</g>
<!-- lib:flewt.names -->
<g id="node44" class="node">
<title>lib:flewt.names</title>
<ellipse fill="none" stroke="black" cx="929.41" cy="-306" rx="72.25" ry="18"/>
<text xml:space="preserve" text-anchor="middle" x="929.41" y="-301.32" font-family="Times,serif" font-size="14.00">flewt.names</text>
</g>
<!-- lib:flewt.subordinate&#45;&gt;lib:flewt.names -->
<g id="edge65" class="edge">
<title>lib:flewt.subordinate&#45;&gt;lib:flewt.names</title>
<path fill="none" stroke="black" d="M1067.45,-503.82C1059.51,-472.44 1039.22,-404.93 1002.41,-360 992.78,-348.24 979.96,-337.78 967.75,-329.32"/>
<polygon fill="black" stroke="black" points="969.7,-326.42 959.43,-323.82 965.84,-332.25 969.7,-326.42"/>
</g>
<!-- lib:flewt.paths -->
<g id="node25" class="node">
<title>lib:flewt.paths</title>
<ellipse fill="none" stroke="black" cx="622.41" cy="-378" rx="67.52" ry="18"/>
<text xml:space="preserve" text-anchor="middle" x="622.41" y="-373.32" font-family="Times,serif" font-size="14.00">flewt.paths</text>
</g>
<!-- lib:flewt.typecheck&#45;&gt;lib:flewt.paths -->
<g id="edge77" class="edge">
<title>lib:flewt.typecheck&#45;&gt;lib:flewt.paths</title>
<path fill="none" stroke="black" d="M788.77,-511.63C768.54,-509.12 746.64,-506.43 726.41,-504 657.56,-495.73 462.54,-519.79 416.41,-468 373.41,-419.71 472.76,-396.63 547.96,-386.36"/>
<polygon fill="black" stroke="black" points="548.36,-389.84 557.82,-385.08 547.45,-382.9 548.36,-389.84"/>
</g>
<!-- lib:flewt.print -->
<g id="node26" class="node">
<title>lib:flewt.print</title>
<ellipse fill="none" stroke="black" cx="929.41" cy="-378" rx="64.36" ry="18"/>
<text xml:space="preserve" text-anchor="middle" x="929.41" y="-373.32" font-family="Times,serif" font-size="14.00">flewt.print</text>
</g>
<!-- lib:flewt.typecheck&#45;&gt;lib:flewt.print -->
<g id="edge78" class="edge">
<title>lib:flewt.typecheck&#45;&gt;lib:flewt.print</title>
<path fill="none" stroke="black" d="M922.91,-508.19C961.56,-498.53 1006.84,-484.19 1018.41,-468 1027.72,-454.98 1026.32,-445.91 1018.41,-432 1009.74,-416.74 994.74,-405.41 979.5,-397.23"/>
<polygon fill="black" stroke="black" points="981.39,-394.26 970.87,-392.97 978.29,-400.54 981.39,-394.26"/>
</g>
<!-- lib:flewt.global -->
<g id="node32" class="node">
<title>lib:flewt.global</title>
<ellipse fill="none" stroke="black" cx="823.41" cy="-90" rx="70.15" ry="18"/>
<text xml:space="preserve" text-anchor="middle" x="823.41" y="-85.33" font-family="Times,serif" font-size="14.00">flewt.global</text>
</g>
<!-- lib:flewt.lambda&#45;&gt;lib:flewt.global -->
<g id="edge33" class="edge">
<title>lib:flewt.lambda&#45;&gt;lib:flewt.global</title>
<path fill="none" stroke="black" d="M777.61,-215.52C780.26,-197.26 785.5,-167.99 794.41,-144 797.7,-135.15 802.26,-125.97 806.79,-117.79"/>
<polygon fill="black" stroke="black" points="809.68,-119.78 811.66,-109.37 803.62,-116.27 809.68,-119.78"/>
</g>
<!-- lib:flewt.table -->
<g id="node34" class="node">
<title>lib:flewt.table</title>
<ellipse fill="none" stroke="black" cx="1008.41" cy="-162" rx="64.89" ry="18"/>
<text xml:space="preserve" text-anchor="middle" x="1008.41" y="-157.32" font-family="Times,serif" font-size="14.00">flewt.table</text>
</g>
<!-- lib:flewt.lambda&#45;&gt;lib:flewt.table -->
<g id="edge34" class="edge">
<title>lib:flewt.lambda&#45;&gt;lib:flewt.table</title>
<path fill="none" stroke="black" d="M821.17,-219.25C859.45,-207.75 914.13,-191.33 954.53,-179.19"/>
<polygon fill="black" stroke="black" points="955.49,-182.55 964.06,-176.32 953.48,-175.85 955.49,-182.55"/>
</g>
<!-- lib:flewt.trail -->
<g id="node35" class="node">
<title>lib:flewt.trail</title>
<ellipse fill="none" stroke="black" cx="864.41" cy="-162" rx="60.68" ry="18"/>
<text xml:space="preserve" text-anchor="middle" x="864.41" y="-157.32" font-family="Times,serif" font-size="14.00">flewt.trail</text>
</g>
<!-- lib:flewt.lambda&#45;&gt;lib:flewt.trail -->
<g id="edge35" class="edge">
<title>lib:flewt.lambda&#45;&gt;lib:flewt.trail</title>
<path fill="none" stroke="black" d="M796.5,-216.41C808,-207.37 822.42,-196.03 835.01,-186.13"/>
<polygon fill="black" stroke="black" points="836.89,-189.1 842.59,-180.16 832.57,-183.6 836.89,-189.1"/>
</g>
<!-- lib:flewt.cover -->
<g id="node18" class="node">
<title>lib:flewt.cover</title>
<ellipse fill="none" stroke="black" cx="880.41" cy="-1026" rx="66.99" ry="18"/>
<text xml:space="preserve" text-anchor="middle" x="880.41" y="-1021.33" font-family="Times,serif" font-size="14.00">flewt.cover</text>
</g>
<!-- lib:flewt.unique -->
<g id="node19" class="node">
<title>lib:flewt.unique</title>
<ellipse fill="none" stroke="black" cx="886.41" cy="-954" rx="73.83" ry="18"/>
<text xml:space="preserve" text-anchor="middle" x="886.41" y="-949.33" font-family="Times,serif" font-size="14.00">flewt.unique</text>
</g>
<!-- lib:flewt.cover&#45;&gt;lib:flewt.unique -->
<g id="edge15" class="edge">
<title>lib:flewt.cover&#45;&gt;lib:flewt.unique</title>
<path fill="none" stroke="black" d="M881.9,-1007.7C882.52,-1000.41 883.27,-991.73 883.97,-983.54"/>
<polygon fill="black" stroke="black" points="887.45,-983.87 884.82,-973.61 880.48,-983.28 887.45,-983.87"/>
</g>
<!-- lib:flewt.worldcheck -->
<g id="node47" class="node">
<title>lib:flewt.worldcheck</title>
<ellipse fill="none" stroke="black" cx="975.41" cy="-882" rx="96.45" ry="18"/>
<text xml:space="preserve" text-anchor="middle" x="975.41" y="-877.33" font-family="Times,serif" font-size="14.00">flewt.worldcheck</text>
</g>
<!-- lib:flewt.unique&#45;&gt;lib:flewt.worldcheck -->
<g id="edge79" class="edge">
<title>lib:flewt.unique&#45;&gt;lib:flewt.worldcheck</title>
<path fill="none" stroke="black" d="M907.5,-936.41C918.65,-927.65 932.52,-916.73 944.83,-907.06"/>
<polygon fill="black" stroke="black" points="946.97,-909.83 952.66,-900.89 942.64,-904.32 946.97,-909.83"/>
</g>
<!-- lib:flewt.flit -->
<g id="node23" class="node">
<title>lib:flewt.flit</title>
<ellipse fill="none" stroke="black" cx="625.41" cy="-450" rx="53.84" ry="18"/>
<text xml:space="preserve" text-anchor="middle" x="625.41" y="-445.32" font-family="Times,serif" font-size="14.00">flewt.flit</text>
</g>
<!-- lib:flewt.frontend&#45;&gt;lib:flewt.flit -->
<g id="edge23" class="edge">
<title>lib:flewt.frontend&#45;&gt;lib:flewt.flit</title>
<path fill="none" stroke="black" d="M587.1,-1223.91C598.21,-1197.62 617.41,-1145.45 617.41,-1099 617.41,-1099 617.41,-1099 617.41,-881 617.41,-728.9 594.86,-691.97 588.41,-540 587.73,-524.01 583.61,-519.26 588.41,-504 591.46,-494.31 596.98,-484.84 602.85,-476.65"/>
<polygon fill="black" stroke="black" points="605.5,-478.94 608.84,-468.88 599.96,-474.67 605.5,-478.94"/>
</g>
<!-- lib:flewt.modules -->
<g id="node28" class="node">
<title>lib:flewt.modules</title>
<ellipse fill="none" stroke="black" cx="507.41" cy="-810" rx="81.72" ry="18"/>
<text xml:space="preserve" text-anchor="middle" x="507.41" y="-805.33" font-family="Times,serif" font-size="14.00">flewt.modules</text>
</g>
<!-- lib:flewt.frontend&#45;&gt;lib:flewt.modules -->
<g id="edge24" class="edge">
<title>lib:flewt.frontend&#45;&gt;lib:flewt.modules</title>
<path fill="none" stroke="black" d="M572.13,-1223.87C561.61,-1197.53 543.41,-1145.29 543.41,-1099 543.41,-1099 543.41,-1099 543.41,-953 543.41,-912.32 529.36,-867.03 518.81,-838.78"/>
<polygon fill="black" stroke="black" points="522.11,-837.61 515.24,-829.54 515.58,-840.13 522.11,-837.61"/>
</g>
<!-- lib:flewt.msg -->
<g id="node29" class="node">
<title>lib:flewt.msg</title>
<ellipse fill="none" stroke="black" cx="491.41" cy="-234" rx="60.68" ry="18"/>
<text xml:space="preserve" text-anchor="middle" x="491.41" y="-229.32" font-family="Times,serif" font-size="14.00">flewt.msg</text>
</g>
<!-- lib:flewt.frontend&#45;&gt;lib:flewt.msg -->
<g id="edge25" class="edge">
<title>lib:flewt.frontend&#45;&gt;lib:flewt.msg</title>
<path fill="none" stroke="black" d="M512.31,-1231.22C479.49,-1223.74 441.01,-1210.68 412.41,-1188 376.34,-1159.39 359.41,-1145.04 359.41,-1099 359.41,-1099 359.41,-1099 359.41,-377 359.41,-321.92 413.34,-279.24 452.26,-255.61"/>
<polygon fill="black" stroke="black" points="453.63,-258.86 460.48,-250.78 450.09,-252.82 453.63,-258.86"/>
</g>
<!-- lib:flewt.prover -->
<g id="node30" class="node">
<title>lib:flewt.prover</title>
<ellipse fill="none" stroke="black" cx="827.41" cy="-1170" rx="72.78" ry="18"/>
<text xml:space="preserve" text-anchor="middle" x="827.41" y="-1165.33" font-family="Times,serif" font-size="14.00">flewt.prover</text>
</g>
<!-- lib:flewt.frontend&#45;&gt;lib:flewt.prover -->
<g id="edge26" class="edge">
<title>lib:flewt.frontend&#45;&gt;lib:flewt.prover</title>
<path fill="none" stroke="black" d="M628.41,-1227.17C669.06,-1215.7 726.92,-1199.36 769.79,-1187.27"/>
<polygon fill="black" stroke="black" points="770.49,-1190.7 779.16,-1184.62 768.59,-1183.97 770.49,-1190.7"/>
</g>
<!-- lib:flewt.style -->
<g id="node31" class="node">
<title>lib:flewt.style</title>
<ellipse fill="none" stroke="black" cx="489.41" cy="-450" rx="63.83" ry="18"/>
<text xml:space="preserve" text-anchor="middle" x="489.41" y="-445.32" font-family="Times,serif" font-size="14.00">flewt.style</text>
</g>
<!-- lib:flewt.frontend&#45;&gt;lib:flewt.style -->
<g id="edge27" class="edge">
<title>lib:flewt.frontend&#45;&gt;lib:flewt.style</title>
<path fill="none" stroke="black" d="M532.07,-1226.93C478.14,-1207.63 397.41,-1167.33 397.41,-1099 397.41,-1099 397.41,-1099 397.41,-593 397.41,-545.55 434.04,-501.45 461.07,-475.36"/>
<polygon fill="black" stroke="black" points="463.42,-477.95 468.34,-468.57 458.64,-472.84 463.42,-477.95"/>
</g>
<!-- lib:flewt.ml_yacc_lib_mod&#45;&gt;lib:base -->
<g id="edge43" class="edge">
<title>lib:flewt.ml_yacc_lib_mod&#45;&gt;lib:base</title>
<path fill="none" stroke="black" d="M1412.08,-868.71C1485.14,-852.82 1578.41,-817.21 1578.41,-739 1578.41,-739 1578.41,-739 1578.41,-161 1578.41,-120.55 1589.14,-99.43 1559.41,-72 1507.82,-24.4 1294.16,-18.7 1199.23,-18.58"/>
<polygon fill="black" stroke="black" points="1199.5,-15.08 1189.5,-18.59 1199.51,-22.08 1199.5,-15.08"/>
</g>
<!-- lib:flewt.domains&#45;&gt;lib:base -->
<g id="edge18" class="edge">
<title>lib:flewt.domains&#45;&gt;lib:base</title>
<path fill="none" stroke="black" d="M1267.26,-287.67C1289.31,-246.31 1337.18,-140.24 1290.41,-72 1269.93,-42.12 1230,-29.08 1198.5,-23.39"/>
<polygon fill="black" stroke="black" points="1199.26,-19.97 1188.83,-21.85 1198.15,-26.88 1199.26,-19.97"/>
</g>
<!-- lib:flewt.index -->
<g id="node24" class="node">
<title>lib:flewt.index</title>
<ellipse fill="none" stroke="black" cx="775.41" cy="-378" rx="66.99" ry="18"/>
<text xml:space="preserve" text-anchor="middle" x="775.41" y="-373.32" font-family="Times,serif" font-size="14.00">flewt.index</text>
</g>
<!-- lib:flewt.flit&#45;&gt;lib:flewt.index -->
<g id="edge19" class="edge">
<title>lib:flewt.flit&#45;&gt;lib:flewt.index</title>
<path fill="none" stroke="black" d="M655.77,-434.83C677.94,-424.49 708.3,-410.32 732.88,-398.85"/>
<polygon fill="black" stroke="black" points="734.07,-402.15 741.66,-394.75 731.11,-395.81 734.07,-402.15"/>
</g>
<!-- lib:flewt.flit&#45;&gt;lib:flewt.paths -->
<g id="edge20" class="edge">
<title>lib:flewt.flit&#45;&gt;lib:flewt.paths</title>
<path fill="none" stroke="black" d="M624.67,-431.7C624.36,-424.41 623.99,-415.73 623.64,-407.54"/>
<polygon fill="black" stroke="black" points="627.14,-407.46 623.21,-397.62 620.14,-407.76 627.14,-407.46"/>
</g>
<!-- lib:flewt.flit&#45;&gt;lib:flewt.print -->
<g id="edge21" class="edge">
<title>lib:flewt.flit&#45;&gt;lib:flewt.print</title>
<path fill="none" stroke="black" d="M666.01,-437.74C673.45,-435.77 681.15,-433.78 688.41,-432 697.25,-429.84 800.38,-407.23 868.84,-392.25"/>
<polygon fill="black" stroke="black" points="869.43,-395.7 878.45,-390.14 867.93,-388.86 869.43,-395.7"/>
</g>
<!-- lib:flewt.index&#45;&gt;lib:flewt.lambda -->
<g id="edge30" class="edge">
<title>lib:flewt.index&#45;&gt;lib:flewt.lambda</title>
<path fill="none" stroke="black" d="M775.41,-359.59C775.41,-335.61 775.41,-292.14 775.41,-263.42"/>
<polygon fill="black" stroke="black" points="778.91,-263.62 775.41,-253.62 771.91,-263.62 778.91,-263.62"/>
</g>
<!-- lib:flewt.paths&#45;&gt;lib:flewt.lambda -->
<g id="edge54" class="edge">
<title>lib:flewt.paths&#45;&gt;lib:flewt.lambda</title>
<path fill="none" stroke="black" d="M640.26,-360.43C667.07,-335.56 717.88,-288.4 748.99,-259.53"/>
<polygon fill="black" stroke="black" points="751.14,-262.3 756.09,-252.93 746.38,-257.17 751.14,-262.3"/>
</g>
<!-- lib:flewt.formatter -->
<g id="node27" class="node">
<title>lib:flewt.formatter</title>
<ellipse fill="none" stroke="black" cx="1084.41" cy="-234" rx="88.04" ry="18"/>
<text xml:space="preserve" text-anchor="middle" x="1084.41" y="-229.32" font-family="Times,serif" font-size="14.00">flewt.formatter</text>
</g>
<!-- lib:flewt.print&#45;&gt;lib:flewt.formatter -->
<g id="edge55" class="edge">
<title>lib:flewt.print&#45;&gt;lib:flewt.formatter</title>
<path fill="none" stroke="black" d="M957.49,-361.46C973.79,-351.77 994.23,-338.43 1010.41,-324 1031.61,-305.09 1051.96,-279.93 1065.94,-261.18"/>
<polygon fill="black" stroke="black" points="1068.66,-263.39 1071.74,-253.25 1063.01,-259.26 1068.66,-263.39"/>
</g>
<!-- lib:flewt.print&#45;&gt;lib:flewt.names -->
<g id="edge56" class="edge">
<title>lib:flewt.print&#45;&gt;lib:flewt.names</title>
<path fill="none" stroke="black" d="M929.41,-359.7C929.41,-352.41 929.41,-343.73 929.41,-335.54"/>
<polygon fill="black" stroke="black" points="932.91,-335.62 929.41,-325.62 925.91,-335.62 932.91,-335.62"/>
</g>
<!-- lib:flewt.formatter&#45;&gt;lib:base -->
<g id="edge22" class="edge">
<title>lib:flewt.formatter&#45;&gt;lib:base</title>
<path fill="none" stroke="black" d="M1086.31,-215.98C1090.06,-185.98 1099.91,-122.1 1120.41,-72 1124.31,-62.48 1129.85,-52.74 1135.28,-44.25"/>
<polygon fill="black" stroke="black" points="1138.01,-46.46 1140.66,-36.2 1132.19,-42.57 1138.01,-46.46"/>
</g>
<!-- lib:flewt.modules&#45;&gt;lib:flewt.typecheck -->
<g id="edge47" class="edge">
<title>lib:flewt.modules&#45;&gt;lib:flewt.typecheck</title>
<path fill="none" stroke="black" d="M522.8,-792.17C540.01,-773.69 569.08,-743.52 596.41,-720 675.59,-651.88 776.54,-581.43 828.71,-546.12"/>
<polygon fill="black" stroke="black" points="830.58,-549.08 836.92,-540.59 826.67,-543.28 830.58,-549.08"/>
</g>
<!-- lib:flewt.msg&#45;&gt;lib:base -->
<g id="edge48" class="edge">
<title>lib:flewt.msg&#45;&gt;lib:base</title>
<path fill="none" stroke="black" d="M510.47,-216.6C550.64,-183.07 648.23,-106.87 744.41,-72 870.07,-26.45 1029.93,-19.15 1107.31,-18.53"/>
<polygon fill="black" stroke="black" points="1107.06,-22.03 1117.05,-18.49 1107.03,-15.03 1107.06,-22.03"/>
</g>
<!-- lib:flewt.tomega -->
<g id="node46" class="node">
<title>lib:flewt.tomega</title>
<ellipse fill="none" stroke="black" cx="873.41" cy="-1098" rx="76.99" ry="18"/>
<text xml:space="preserve" text-anchor="middle" x="873.41" y="-1093.33" font-family="Times,serif" font-size="14.00">flewt.tomega</text>
</g>
<!-- lib:flewt.prover&#45;&gt;lib:flewt.tomega -->
<g id="edge57" class="edge">
<title>lib:flewt.prover&#45;&gt;lib:flewt.tomega</title>
<path fill="none" stroke="black" d="M838.55,-1152.05C843.73,-1144.18 850.01,-1134.62 855.81,-1125.79"/>
<polygon fill="black" stroke="black" points="858.66,-1127.82 861.23,-1117.54 852.81,-1123.98 858.66,-1127.82"/>
</g>
<!-- lib:flewt.style&#45;&gt;lib:flewt.index -->
<g id="edge62" class="edge">
<title>lib:flewt.style&#45;&gt;lib:flewt.index</title>
<path fill="none" stroke="black" d="M536.64,-437.44C585.82,-425.4 662.96,-406.52 716.18,-393.5"/>
<polygon fill="black" stroke="black" points="716.81,-396.95 725.69,-391.17 715.14,-390.15 716.81,-396.95"/>
</g>
<!-- lib:flewt.style&#45;&gt;lib:flewt.paths -->
<g id="edge63" class="edge">
<title>lib:flewt.style&#45;&gt;lib:flewt.paths</title>
<path fill="none" stroke="black" d="M518.6,-433.64C537.44,-423.72 562.19,-410.7 582.79,-399.85"/>
<polygon fill="black" stroke="black" points="584.28,-403.03 591.49,-395.27 581.02,-396.83 584.28,-403.03"/>
</g>
<!-- lib:flewt.style&#45;&gt;lib:flewt.print -->
<g id="edge64" class="edge">
<title>lib:flewt.style&#45;&gt;lib:flewt.print</title>
<path fill="none" stroke="black" d="M535.99,-437.39C544.74,-435.42 553.83,-433.53 562.41,-432 689.84,-409.29 723.83,-417.8 851.41,-396 857.48,-394.96 863.78,-393.78 870.06,-392.52"/>
<polygon fill="black" stroke="black" points="870.71,-395.96 879.8,-390.51 869.3,-389.1 870.71,-395.96"/>
</g>
<!-- lib:flewt.global&#45;&gt;lib:base -->
<g id="edge28" class="edge">
<title>lib:flewt.global&#45;&gt;lib:base</title>
<path fill="none" stroke="black" d="M876.07,-77.83C941.2,-64.01 1050.81,-40.76 1110.88,-28.02"/>
<polygon fill="black" stroke="black" points="1111.31,-31.51 1120.37,-26.01 1109.86,-24.66 1111.31,-31.51"/>
</g>
<!-- lib:flewt.heuristic -->
<g id="node33" class="node">
<title>lib:flewt.heuristic</title>
<ellipse fill="none" stroke="black" cx="1466.41" cy="-90" rx="83.83" ry="18"/>
<text xml:space="preserve" text-anchor="middle" x="1466.41" y="-85.33" font-family="Times,serif" font-size="14.00">flewt.heuristic</text>
</g>
<!-- lib:flewt.heuristic&#45;&gt;lib:base -->
<g id="edge29" class="edge">
<title>lib:flewt.heuristic&#45;&gt;lib:base</title>
<path fill="none" stroke="black" d="M1409.73,-76.32C1348.06,-62.53 1250.88,-40.8 1195.59,-28.43"/>
<polygon fill="black" stroke="black" points="1196.46,-25.04 1185.93,-26.27 1194.93,-31.87 1196.46,-25.04"/>
</g>
<!-- lib:flewt.table&#45;&gt;lib:flewt.compat -->
<g id="edge66" class="edge">
<title>lib:flewt.table&#45;&gt;lib:flewt.compat</title>
<path fill="none" stroke="black" d="M1047.33,-147.17C1077.89,-136.31 1120.7,-121.1 1154.07,-109.25"/>
<polygon fill="black" stroke="black" points="1154.86,-112.68 1163.11,-106.03 1152.52,-106.08 1154.86,-112.68"/>
</g>
<!-- lib:flewt.trail&#45;&gt;lib:base -->
<g id="edge76" class="edge">
<title>lib:flewt.trail&#45;&gt;lib:base</title>
<path fill="none" stroke="black" d="M894.79,-146.07C948.85,-119.51 1061.38,-64.22 1118.51,-36.15"/>
<polygon fill="black" stroke="black" points="1120.05,-39.29 1127.48,-31.74 1116.96,-33.01 1120.05,-39.29"/>
</g>
<!-- lib:flewt.m2 -->
<g id="node36" class="node">
<title>lib:flewt.m2</title>
<ellipse fill="none" stroke="black" cx="1126.41" cy="-738" rx="55.42" ry="18"/>
<text xml:space="preserve" text-anchor="middle" x="1126.41" y="-733.33" font-family="Times,serif" font-size="14.00">flewt.m2</text>
</g>
<!-- lib:flewt.opsem -->
<g id="node37" class="node">
<title>lib:flewt.opsem</title>
<ellipse fill="none" stroke="black" cx="940.41" cy="-666" rx="72.25" ry="18"/>
<text xml:space="preserve" text-anchor="middle" x="940.41" y="-661.33" font-family="Times,serif" font-size="14.00">flewt.opsem</text>
</g>
<!-- lib:flewt.m2&#45;&gt;lib:flewt.opsem -->
<g id="edge36" class="edge">
<title>lib:flewt.m2&#45;&gt;lib:flewt.opsem</title>
<path fill="none" stroke="black" d="M1091.43,-723.83C1062.69,-713.02 1021.63,-697.57 989.59,-685.51"/>
<polygon fill="black" stroke="black" points="991.1,-682.34 980.51,-682.09 988.64,-688.89 991.1,-682.34"/>
</g>
<!-- lib:flewt.stream -->
<g id="node38" class="node">
<title>lib:flewt.stream</title>
<ellipse fill="none" stroke="black" cx="1340.41" cy="-666" rx="74.88" ry="18"/>
<text xml:space="preserve" text-anchor="middle" x="1340.41" y="-661.33" font-family="Times,serif" font-size="14.00">flewt.stream</text>
</g>
<!-- lib:flewt.m2&#45;&gt;lib:flewt.stream -->
<g id="edge37" class="edge">
<title>lib:flewt.m2&#45;&gt;lib:flewt.stream</title>
<path fill="none" stroke="black" d="M1164.18,-724.65C1198.14,-713.54 1248.42,-697.09 1286.59,-684.61"/>
<polygon fill="black" stroke="black" points="1287.66,-687.94 1296.07,-681.5 1285.48,-681.29 1287.66,-687.94"/>
</g>
<!-- lib:flewt.terminate -->
<g id="node39" class="node">
<title>lib:flewt.terminate</title>
<ellipse fill="none" stroke="black" cx="1126.41" cy="-594" rx="89.09" ry="18"/>
<text xml:space="preserve" text-anchor="middle" x="1126.41" y="-589.33" font-family="Times,serif" font-size="14.00">flewt.terminate</text>
</g>
<!-- lib:flewt.m2&#45;&gt;lib:flewt.terminate -->
<g id="edge38" class="edge">
<title>lib:flewt.m2&#45;&gt;lib:flewt.terminate</title>
<path fill="none" stroke="black" d="M1126.41,-719.59C1126.41,-695.61 1126.41,-652.14 1126.41,-623.42"/>
<polygon fill="black" stroke="black" points="1129.91,-623.62 1126.41,-613.62 1122.91,-623.62 1129.91,-623.62"/>
</g>
<!-- lib:flewt.thm -->
<g id="node40" class="node">
<title>lib:flewt.thm</title>
<ellipse fill="none" stroke="black" cx="657.41" cy="-522" rx="59.63" ry="18"/>
<text xml:space="preserve" text-anchor="middle" x="657.41" y="-517.33" font-family="Times,serif" font-size="14.00">flewt.thm</text>
</g>
<!-- lib:flewt.m2&#45;&gt;lib:flewt.thm -->
<g id="edge39" class="edge">
<title>lib:flewt.m2&#45;&gt;lib:flewt.thm</title>
<path fill="none" stroke="black" d="M1072.17,-733.77C1016.51,-728.77 928.54,-716.07 859.41,-684 785.97,-649.92 715.66,-583.84 680.58,-547.84"/>
<polygon fill="black" stroke="black" points="683.35,-545.67 673.89,-540.89 678.3,-550.52 683.35,-545.67"/>
</g>
<!-- lib:flewt.timing -->
<g id="node41" class="node">
<title>lib:flewt.timing</title>
<ellipse fill="none" stroke="black" cx="1305.41" cy="-594" rx="72.25" ry="18"/>
<text xml:space="preserve" text-anchor="middle" x="1305.41" y="-589.33" font-family="Times,serif" font-size="14.00">flewt.timing</text>
</g>
<!-- lib:flewt.m2&#45;&gt;lib:flewt.timing -->
<g id="edge40" class="edge">
<title>lib:flewt.m2&#45;&gt;lib:flewt.timing</title>
<path fill="none" stroke="black" d="M1146.6,-720.99C1178.12,-695.98 1239.21,-647.52 1275.75,-618.54"/>
<polygon fill="black" stroke="black" points="1277.63,-621.51 1283.29,-612.55 1273.28,-616.03 1277.63,-621.51"/>
</g>
<!-- lib:flewt.opsem&#45;&gt;lib:flewt.compile -->
<g id="edge51" class="edge">
<title>lib:flewt.opsem&#45;&gt;lib:flewt.compile</title>
<path fill="none" stroke="black" d="M940.41,-647.7C940.41,-640.41 940.41,-631.73 940.41,-623.54"/>
<polygon fill="black" stroke="black" points="943.91,-623.62 940.41,-613.62 936.91,-623.62 943.91,-623.62"/>
</g>
<!-- lib:flewt.tabling -->
<g id="node45" class="node">
<title>lib:flewt.tabling</title>
<ellipse fill="none" stroke="black" cx="772.41" cy="-450" rx="74.88" ry="18"/>
<text xml:space="preserve" text-anchor="middle" x="772.41" y="-445.32" font-family="Times,serif" font-size="14.00">flewt.tabling</text>
</g>
<!-- lib:flewt.opsem&#45;&gt;lib:flewt.tabling -->
<g id="edge52" class="edge">
<title>lib:flewt.opsem&#45;&gt;lib:flewt.tabling</title>
<path fill="none" stroke="black" d="M900.72,-650.52C857.55,-632.3 791.13,-596.39 764.41,-540 755.48,-521.14 758.14,-497.52 762.68,-479.36"/>
<polygon fill="black" stroke="black" points="766.04,-480.35 765.42,-469.77 759.31,-478.42 766.04,-480.35"/>
</g>
<!-- lib:flewt.stream&#45;&gt;lib:base -->
<g id="edge61" class="edge">
<title>lib:flewt.stream&#45;&gt;lib:base</title>
<path fill="none" stroke="black" d="M1358.65,-648.51C1368.31,-638.79 1379.56,-625.74 1386.41,-612 1404.46,-575.8 1405.41,-563.45 1405.41,-523 1405.41,-523 1405.41,-523 1405.41,-377 1405.41,-235.28 1411.32,-173.49 1312.41,-72 1282.45,-41.26 1234.22,-28.35 1198.72,-22.92"/>
<polygon fill="black" stroke="black" points="1199.56,-19.51 1189.18,-21.62 1198.62,-26.44 1199.56,-19.51"/>
</g>
<!-- lib:flewt.terminate&#45;&gt;lib:flewt.solvers -->
<g id="edge70" class="edge">
<title>lib:flewt.terminate&#45;&gt;lib:flewt.solvers</title>
<path fill="none" stroke="black" d="M1158.42,-576.76C1177.76,-566.95 1202.62,-554.35 1223.39,-543.81"/>
<polygon fill="black" stroke="black" points="1224.84,-547 1232.18,-539.35 1221.68,-540.75 1224.84,-547"/>
</g>
<!-- lib:flewt.terminate&#45;&gt;lib:flewt.subordinate -->
<g id="edge71" class="edge">
<title>lib:flewt.terminate&#45;&gt;lib:flewt.subordinate</title>
<path fill="none" stroke="black" d="M1113.1,-576.05C1106.78,-568.01 1099.07,-558.2 1092.02,-549.23"/>
<polygon fill="black" stroke="black" points="1094.85,-547.17 1085.92,-541.47 1089.35,-551.49 1094.85,-547.17"/>
</g>
<!-- lib:flewt.thm&#45;&gt;lib:flewt.modes -->
<g id="edge72" class="edge">
<title>lib:flewt.thm&#45;&gt;lib:flewt.modes</title>
<path fill="none" stroke="black" d="M702.4,-509.75C749.64,-497.94 824.2,-479.3 876.65,-466.19"/>
<polygon fill="black" stroke="black" points="877.5,-469.59 886.35,-463.77 875.8,-462.8 877.5,-469.59"/>
</g>
<!-- lib:flewt.thm&#45;&gt;lib:flewt.tabling -->
<g id="edge73" class="edge">
<title>lib:flewt.thm&#45;&gt;lib:flewt.tabling</title>
<path fill="none" stroke="black" d="M682.94,-505.46C698.53,-495.97 718.74,-483.67 736,-473.17"/>
<polygon fill="black" stroke="black" points="737.75,-476.2 744.47,-468.01 734.11,-470.22 737.75,-476.2"/>
</g>
<!-- lib:flewt.timing&#45;&gt;lib:flewt.compat -->
<g id="edge74" class="edge">
<title>lib:flewt.timing&#45;&gt;lib:flewt.compat</title>
<path fill="none" stroke="black" d="M1322.44,-576.3C1331.46,-566.52 1341.97,-553.47 1348.41,-540 1365.86,-503.51 1367.41,-491.45 1367.41,-451 1367.41,-451 1367.41,-451 1367.41,-377 1367.41,-267.95 1277.14,-162.33 1231.37,-115.79"/>
<polygon fill="black" stroke="black" points="1233.99,-113.47 1224.44,-108.87 1229.04,-118.42 1233.99,-113.47"/>
</g>
<!-- lib:flewt.meta -->
<g id="node42" class="node">
<title>lib:flewt.meta</title>
<ellipse fill="none" stroke="black" cx="1126.41" cy="-810" rx="64.89" ry="18"/>
<text xml:space="preserve" text-anchor="middle" x="1126.41" y="-805.33" font-family="Times,serif" font-size="14.00">flewt.meta</text>
</g>
<!-- lib:flewt.meta&#45;&gt;lib:flewt.heuristic -->
<g id="edge41" class="edge">
<title>lib:flewt.meta&#45;&gt;lib:flewt.heuristic</title>
<path fill="none" stroke="black" d="M1191.4,-809.19C1288.82,-805.68 1461.41,-783.07 1461.41,-667 1461.41,-667 1461.41,-667 1461.41,-233 1461.41,-193.72 1463.35,-148.36 1464.81,-119.68"/>
<polygon fill="black" stroke="black" points="1468.29,-120.16 1465.32,-109.99 1461.3,-119.79 1468.29,-120.16"/>
</g>
<!-- lib:flewt.meta&#45;&gt;lib:flewt.m2 -->
<g id="edge42" class="edge">
<title>lib:flewt.meta&#45;&gt;lib:flewt.m2</title>
<path fill="none" stroke="black" d="M1126.41,-791.7C1126.41,-784.41 1126.41,-775.73 1126.41,-767.54"/>
<polygon fill="black" stroke="black" points="1129.91,-767.62 1126.41,-757.62 1122.91,-767.62 1129.91,-767.62"/>
</g>
<!-- lib:flewt.modes&#45;&gt;lib:flewt.index -->
<g id="edge44" class="edge">
<title>lib:flewt.modes&#45;&gt;lib:flewt.index</title>
<path fill="none" stroke="black" d="M902.26,-433.81C878.13,-423.39 845.91,-409.46 819.98,-398.26"/>
<polygon fill="black" stroke="black" points="821.62,-395.15 811.05,-394.4 818.84,-401.58 821.62,-395.15"/>
</g>
<!-- lib:flewt.modes&#45;&gt;lib:flewt.paths -->
<g id="edge45" class="edge">
<title>lib:flewt.modes&#45;&gt;lib:flewt.paths</title>
<path fill="none" stroke="black" d="M884.69,-437.28C829.4,-425 742.6,-405.71 684.15,-392.72"/>
<polygon fill="black" stroke="black" points="685.22,-389.37 674.7,-390.62 683.7,-396.2 685.22,-389.37"/>
</g>
<!-- lib:flewt.modes&#45;&gt;lib:flewt.print -->
<g id="edge46" class="edge">
<title>lib:flewt.modes&#45;&gt;lib:flewt.print</title>
<path fill="none" stroke="black" d="M935.44,-431.7C934.6,-424.41 933.61,-415.73 932.67,-407.54"/>
<polygon fill="black" stroke="black" points="936.15,-407.15 931.54,-397.61 929.2,-407.94 936.15,-407.15"/>
</g>
<!-- lib:flewt.names&#45;&gt;lib:flewt.lambda -->
<g id="edge49" class="edge">
<title>lib:flewt.names&#45;&gt;lib:flewt.lambda</title>
<path fill="none" stroke="black" d="M895.62,-289.64C873.33,-279.51 843.9,-266.13 819.74,-255.15"/>
<polygon fill="black" stroke="black" points="821.33,-252.02 810.77,-251.07 818.43,-258.4 821.33,-252.02"/>
</g>
<!-- lib:flewt.tabling&#45;&gt;lib:flewt.index -->
<g id="edge67" class="edge">
<title>lib:flewt.tabling&#45;&gt;lib:flewt.index</title>
<path fill="none" stroke="black" d="M773.15,-431.7C773.47,-424.41 773.84,-415.73 774.19,-407.54"/>
<polygon fill="black" stroke="black" points="777.68,-407.76 774.62,-397.62 770.69,-407.46 777.68,-407.76"/>
</g>
<!-- lib:flewt.tabling&#45;&gt;lib:flewt.paths -->
<g id="edge68" class="edge">
<title>lib:flewt.tabling&#45;&gt;lib:flewt.paths</title>
<path fill="none" stroke="black" d="M739.12,-433.46C717.34,-423.3 688.68,-409.92 665.21,-398.97"/>
<polygon fill="black" stroke="black" points="666.75,-395.83 656.21,-394.77 663.79,-402.17 666.75,-395.83"/>
</g>
<!-- lib:flewt.tabling&#45;&gt;lib:flewt.print -->
<g id="edge69" class="edge">
<title>lib:flewt.tabling&#45;&gt;lib:flewt.print</title>
<path fill="none" stroke="black" d="M806.87,-433.64C830.09,-423.29 860.91,-409.54 885.83,-398.43"/>
<polygon fill="black" stroke="black" points="887.03,-401.73 894.73,-394.46 884.17,-395.34 887.03,-401.73"/>
</g>
<!-- lib:flewt.tomega&#45;&gt;lib:flewt.cover -->
<g id="edge75" class="edge">
<title>lib:flewt.tomega&#45;&gt;lib:flewt.cover</title>
<path fill="none" stroke="black" d="M875.14,-1079.7C875.87,-1072.41 876.74,-1063.73 877.56,-1055.54"/>
<polygon fill="black" stroke="black" points="881.04,-1055.91 878.55,-1045.61 874.07,-1055.21 881.04,-1055.91"/>
</g>
<!-- lib:flewt.worldcheck&#45;&gt;lib:flewt.meta -->
<g id="edge80" class="edge">
<title>lib:flewt.worldcheck&#45;&gt;lib:flewt.meta</title>
<path fill="none" stroke="black" d="M1010.43,-864.76C1032.35,-854.61 1060.71,-841.46 1083.91,-830.7"/>
<polygon fill="black" stroke="black" points="1085.18,-833.97 1092.79,-826.59 1082.24,-827.62 1085.18,-833.97"/>
</g>
</g>
</svg>
