<?xml version="1.0" encoding="UTF-8" standalone="no"?>
<!DOCTYPE svg PUBLIC "-//W3C//DTD SVG 1.1//EN"
 "http://www.w3.org/Graphics/SVG/1.1/DTD/svg11.dtd">
<!-- Generated by graphviz version 14.1.1 (0)
 -->
<!-- Pages: 1 -->
<svg width="1520pt" height="1484pt"
 viewBox="0.00 0.00 1520.00 1484.00" xmlns="http://www.w3.org/2000/svg" xmlns:xlink="http://www.w3.org/1999/xlink">
<g id="graph0" class="graph" transform="scale(1 1) rotate(0) translate(4 1480)">
<polygon fill="white" stroke="none" points="-4,4 -4,-1480 1515.75,-1480 1515.75,4 -4,4"/>
<!-- exe:./bin/dune:0 -->
<g id="node1" class="node">
<title>exe:./bin/dune:0</title>
<polygon fill="none" stroke="black" points="710.99,-1476 659.41,-1458 710.99,-1440 762.58,-1458 710.99,-1476"/>
<text xml:space="preserve" text-anchor="middle" x="710.99" y="-1453.33" font-family="Times,serif" font-size="14.00">flewt</text>
</g>
<!-- lib:flewt -->
<g id="node2" class="node">
<title>lib:flewt</title>
<ellipse fill="none" stroke="black" cx="710.99" cy="-1386" rx="36.48" ry="18"/>
<text xml:space="preserve" text-anchor="middle" x="710.99" y="-1381.33" font-family="Times,serif" font-size="14.00">flewt</text>
</g>
<!-- exe:./bin/dune:0&#45;&gt;lib:flewt -->
<g id="edge1" class="edge">
<title>exe:./bin/dune:0&#45;&gt;lib:flewt</title>
<path fill="none" stroke="black" d="M710.99,-1439.7C710.99,-1432.41 710.99,-1423.73 710.99,-1415.54"/>
<polygon fill="black" stroke="black" points="714.49,-1415.62 710.99,-1405.62 707.49,-1415.62 714.49,-1415.62"/>
</g>
<!-- lib:flewt.compress -->
<g id="node4" class="node">
<title>lib:flewt.compress</title>
<ellipse fill="none" stroke="black" cx="418.99" cy="-1098" rx="87.51" ry="18"/>
<text xml:space="preserve" text-anchor="middle" x="418.99" y="-1093.33" font-family="Times,serif" font-size="14.00">flewt.compress</text>
</g>
<!-- lib:flewt&#45;&gt;lib:flewt.compress -->
<g id="edge2" class="edge">
<title>lib:flewt&#45;&gt;lib:flewt.compress</title>
<path fill="none" stroke="black" d="M674.99,-1382.5C636.35,-1378.08 575.12,-1365.84 534.99,-1332 469.74,-1276.96 437.62,-1176.26 425.27,-1127.27"/>
<polygon fill="black" stroke="black" points="428.72,-1126.63 422.97,-1117.73 421.91,-1128.27 428.72,-1126.63"/>
</g>
<!-- lib:flewt.delphin -->
<g id="node5" class="node">
<title>lib:flewt.delphin</title>
<ellipse fill="none" stroke="black" cx="1146.99" cy="-1314" rx="76.99" ry="18"/>
<text xml:space="preserve" text-anchor="middle" x="1146.99" y="-1309.33" font-family="Times,serif" font-size="14.00">flewt.delphin</text>
</g>
<!-- lib:flewt&#45;&gt;lib:flewt.delphin -->
<g id="edge3" class="edge">
<title>lib:flewt&#45;&gt;lib:flewt.delphin</title>
<path fill="none" stroke="black" d="M746.1,-1380.22C809.24,-1371.49 946.11,-1352.04 1060.99,-1332 1066.99,-1330.95 1073.21,-1329.82 1079.44,-1328.65"/>
<polygon fill="black" stroke="black" points="1079.97,-1332.11 1089.13,-1326.8 1078.66,-1325.24 1079.97,-1332.11"/>
</g>
<!-- lib:flewt.inverse -->
<g id="node6" class="node">
<title>lib:flewt.inverse</title>
<ellipse fill="none" stroke="black" cx="619.99" cy="-1314" rx="76.46" ry="18"/>
<text xml:space="preserve" text-anchor="middle" x="619.99" y="-1309.33" font-family="Times,serif" font-size="14.00">flewt.inverse</text>
</g>
<!-- lib:flewt&#45;&gt;lib:flewt.inverse -->
<g id="edge4" class="edge">
<title>lib:flewt&#45;&gt;lib:flewt.inverse</title>
<path fill="none" stroke="black" d="M692.14,-1370.5C680.21,-1361.32 664.51,-1349.24 650.8,-1338.7"/>
<polygon fill="black" stroke="black" points="652.96,-1335.94 642.9,-1332.62 648.69,-1341.49 652.96,-1335.94"/>
</g>
<!-- lib:flewt.netserver -->
<g id="node7" class="node">
<title>lib:flewt.netserver</title>
<ellipse fill="none" stroke="black" cx="801.99" cy="-1314" rx="88.04" ry="18"/>
<text xml:space="preserve" text-anchor="middle" x="801.99" y="-1309.33" font-family="Times,serif" font-size="14.00">flewt.netserver</text>
</g>
<!-- lib:flewt&#45;&gt;lib:flewt.netserver -->
<g id="edge5" class="edge">
<title>lib:flewt&#45;&gt;lib:flewt.netserver</title>
<path fill="none" stroke="black" d="M729.85,-1370.5C741.77,-1361.32 757.48,-1349.24 771.18,-1338.7"/>
<polygon fill="black" stroke="black" points="773.29,-1341.49 779.08,-1332.62 769.02,-1335.94 773.29,-1341.49"/>
</g>
<!-- lib:flewt.order -->
<g id="node8" class="node">
<title>lib:flewt.order</title>
<ellipse fill="none" stroke="black" cx="66.99" cy="-1026" rx="66.99" ry="18"/>
<text xml:space="preserve" text-anchor="middle" x="66.99" y="-1021.33" font-family="Times,serif" font-size="14.00">flewt.order</text>
</g>
<!-- lib:flewt&#45;&gt;lib:flewt.order -->
<g id="edge6" class="edge">
<title>lib:flewt&#45;&gt;lib:flewt.order</title>
<path fill="none" stroke="black" d="M674.84,-1383.06C556,-1375.73 184.99,-1344.68 184.99,-1243 184.99,-1243 184.99,-1243 184.99,-1169 184.99,-1116.99 137.59,-1073.87 102.88,-1049.26"/>
<polygon fill="black" stroke="black" points="104.95,-1046.44 94.72,-1043.67 100.99,-1052.21 104.95,-1046.44"/>
</g>
<!-- lib:flewt.server -->
<g id="node9" class="node">
<title>lib:flewt.server</title>
<ellipse fill="none" stroke="black" cx="979.99" cy="-1314" rx="71.73" ry="18"/>
<text xml:space="preserve" text-anchor="middle" x="979.99" y="-1309.33" font-family="Times,serif" font-size="14.00">flewt.server</text>
</g>
<!-- lib:flewt&#45;&gt;lib:flewt.server -->
<g id="edge7" class="edge">
<title>lib:flewt&#45;&gt;lib:flewt.server</title>
<path fill="none" stroke="black" d="M742.91,-1376.7C786.65,-1365.31 866.05,-1344.65 920.83,-1330.39"/>
<polygon fill="black" stroke="black" points="921.52,-1333.83 930.32,-1327.93 919.76,-1327.06 921.52,-1333.83"/>
</g>
<!-- lib:base -->
<g id="node3" class="node">
<title>lib:base</title>
<ellipse fill="lightgrey" stroke="black" cx="1090.99" cy="-18" rx="34.37" ry="18"/>
<text xml:space="preserve" text-anchor="middle" x="1090.99" y="-13.32" font-family="Times,serif" font-size="14.00">base</text>
</g>
<!-- lib:flewt.lambda -->
<g id="node17" class="node">
<title>lib:flewt.lambda</title>
<ellipse fill="none" stroke="black" cx="682.99" cy="-234" rx="76.46" ry="18"/>
<text xml:space="preserve" text-anchor="middle" x="682.99" y="-229.32" font-family="Times,serif" font-size="14.00">flewt.lambda</text>
</g>
<!-- lib:flewt.compress&#45;&gt;lib:flewt.lambda -->
<g id="edge14" class="edge">
<title>lib:flewt.compress&#45;&gt;lib:flewt.lambda</title>
<path fill="none" stroke="black" d="M345.35,-1087.94C269.4,-1074 161.99,-1039.36 161.99,-955 161.99,-955 161.99,-955 161.99,-377 161.99,-287.57 451.34,-252.57 598.77,-240.54"/>
<polygon fill="black" stroke="black" points="598.8,-244.05 608.49,-239.77 598.24,-237.07 598.8,-244.05"/>
</g>
<!-- lib:flewt.frontend -->
<g id="node20" class="node">
<title>lib:flewt.frontend</title>
<ellipse fill="none" stroke="black" cx="979.99" cy="-1242" rx="82.77" ry="18"/>
<text xml:space="preserve" text-anchor="middle" x="979.99" y="-1237.33" font-family="Times,serif" font-size="14.00">flewt.frontend</text>
</g>
<!-- lib:flewt.delphin&#45;&gt;lib:flewt.frontend -->
<g id="edge16" class="edge">
<title>lib:flewt.delphin&#45;&gt;lib:flewt.frontend</title>
<path fill="none" stroke="black" d="M1110.75,-1297.81C1086.39,-1287.6 1054.02,-1274.03 1027.58,-1262.95"/>
<polygon fill="black" stroke="black" points="1028.99,-1259.75 1018.42,-1259.11 1026.29,-1266.2 1028.99,-1259.75"/>
</g>
<!-- lib:flewt.ml_yacc_lib_mod -->
<g id="node21" class="node">
<title>lib:flewt.ml_yacc_lib_mod</title>
<ellipse fill="none" stroke="black" cx="1388.99" cy="-954" rx="122.76" ry="18"/>
<text xml:space="preserve" text-anchor="middle" x="1388.99" y="-949.33" font-family="Times,serif" font-size="14.00">flewt.ml_yacc_lib_mod</text>
</g>
<!-- lib:flewt.delphin&#45;&gt;lib:flewt.ml_yacc_lib_mod -->
<g id="edge17" class="edge">
<title>lib:flewt.delphin&#45;&gt;lib:flewt.ml_yacc_lib_mod</title>
<path fill="none" stroke="black" d="M1194.15,-1299.5C1248.96,-1280.57 1331.99,-1240.44 1331.99,-1171 1331.99,-1171 1331.99,-1171 1331.99,-1097 1331.99,-1054.36 1354.4,-1009.38 1371.11,-981.74"/>
<polygon fill="black" stroke="black" points="1374.04,-983.66 1376.38,-973.32 1368.11,-979.95 1374.04,-983.66"/>
</g>
<!-- lib:flewt.inverse&#45;&gt;lib:flewt.frontend -->
<g id="edge32" class="edge">
<title>lib:flewt.inverse&#45;&gt;lib:flewt.frontend</title>
<path fill="none" stroke="black" d="M676.68,-1301.61C686.13,-1299.72 695.84,-1297.8 704.99,-1296 773.95,-1282.46 852.71,-1267.31 908.21,-1256.69"/>
<polygon fill="black" stroke="black" points="908.69,-1260.16 917.86,-1254.85 907.38,-1253.29 908.69,-1260.16"/>
</g>
<!-- lib:flewt.netserver&#45;&gt;lib:flewt.frontend -->
<g id="edge50" class="edge">
<title>lib:flewt.netserver&#45;&gt;lib:flewt.frontend</title>
<path fill="none" stroke="black" d="M841.5,-1297.46C867.83,-1287.11 902.65,-1273.42 930.79,-1262.35"/>
<polygon fill="black" stroke="black" points="931.78,-1265.72 939.8,-1258.8 929.21,-1259.21 931.78,-1265.72"/>
</g>
<!-- lib:flewt.order&#45;&gt;lib:flewt.lambda -->
<g id="edge53" class="edge">
<title>lib:flewt.order&#45;&gt;lib:flewt.lambda</title>
<path fill="none" stroke="black" d="M78.8,-1007.96C95.5,-982.16 123.99,-931.08 123.99,-883 123.99,-883 123.99,-883 123.99,-377 123.99,-336.03 116.74,-314.49 147.99,-288 181.42,-259.67 453.69,-244.38 596.41,-238.25"/>
<polygon fill="black" stroke="black" points="596.35,-241.75 606.2,-237.83 596.06,-234.76 596.35,-241.75"/>
</g>
<!-- lib:flewt.server&#45;&gt;lib:flewt.frontend -->
<g id="edge58" class="edge">
<title>lib:flewt.server&#45;&gt;lib:flewt.frontend</title>
<path fill="none" stroke="black" d="M979.99,-1295.7C979.99,-1288.41 979.99,-1279.73 979.99,-1271.54"/>
<polygon fill="black" stroke="black" points="983.49,-1271.62 979.99,-1261.62 976.49,-1271.62 983.49,-1271.62"/>
</g>
<!-- lib:flewt.basis -->
<g id="node10" class="node">
<title>lib:flewt.basis</title>
<ellipse fill="none" stroke="black" cx="652.99" cy="-90" rx="65.41" ry="18"/>
<text xml:space="preserve" text-anchor="middle" x="652.99" y="-85.33" font-family="Times,serif" font-size="14.00">flewt.basis</text>
</g>
<!-- lib:flewt.basis&#45;&gt;lib:base -->
<g id="edge8" class="edge">
<title>lib:flewt.basis&#45;&gt;lib:base</title>
<path fill="none" stroke="black" d="M706.83,-79.37C720.87,-76.92 735.99,-74.31 749.99,-72 856.5,-54.39 982,-35.31 1047,-25.56"/>
<polygon fill="black" stroke="black" points="1047.17,-29.07 1056.54,-24.13 1046.13,-22.15 1047.17,-29.07"/>
</g>
<!-- lib:unix -->
<g id="node11" class="node">
<title>lib:unix</title>
<ellipse fill="lightgrey" stroke="black" cx="652.99" cy="-18" rx="32.79" ry="18"/>
<text xml:space="preserve" text-anchor="middle" x="652.99" y="-13.32" font-family="Times,serif" font-size="14.00">unix</text>
</g>
<!-- lib:flewt.basis&#45;&gt;lib:unix -->
<g id="edge9" class="edge">
<title>lib:flewt.basis&#45;&gt;lib:unix</title>
<path fill="none" stroke="black" d="M652.99,-71.7C652.99,-64.41 652.99,-55.73 652.99,-47.54"/>
<polygon fill="black" stroke="black" points="656.49,-47.62 652.99,-37.62 649.49,-47.62 656.49,-47.62"/>
</g>
<!-- lib:flewt.compat -->
<g id="node12" class="node">
<title>lib:flewt.compat</title>
<ellipse fill="none" stroke="black" cx="986.99" cy="-90" rx="76.46" ry="18"/>
<text xml:space="preserve" text-anchor="middle" x="986.99" y="-85.33" font-family="Times,serif" font-size="14.00">flewt.compat</text>
</g>
<!-- lib:flewt.compat&#45;&gt;lib:base -->
<g id="edge10" class="edge">
<title>lib:flewt.compat&#45;&gt;lib:base</title>
<path fill="none" stroke="black" d="M1011.37,-72.59C1026.29,-62.55 1045.48,-49.63 1061.28,-39"/>
<polygon fill="black" stroke="black" points="1063.01,-42.05 1069.35,-33.56 1059.1,-36.24 1063.01,-42.05"/>
</g>
<!-- lib:flewt.compile -->
<g id="node13" class="node">
<title>lib:flewt.compile</title>
<ellipse fill="none" stroke="black" cx="623.99" cy="-594" rx="78.57" ry="18"/>
<text xml:space="preserve" text-anchor="middle" x="623.99" y="-589.33" font-family="Times,serif" font-size="14.00">flewt.compile</text>
</g>
<!-- lib:flewt.solvers -->
<g id="node14" class="node">
<title>lib:flewt.solvers</title>
<ellipse fill="none" stroke="black" cx="520.99" cy="-522" rx="75.41" ry="18"/>
<text xml:space="preserve" text-anchor="middle" x="520.99" y="-517.33" font-family="Times,serif" font-size="14.00">flewt.solvers</text>
</g>
<!-- lib:flewt.compile&#45;&gt;lib:flewt.solvers -->
<g id="edge11" class="edge">
<title>lib:flewt.compile&#45;&gt;lib:flewt.solvers</title>
<path fill="none" stroke="black" d="M599.58,-576.41C586.11,-567.26 569.19,-555.76 554.5,-545.77"/>
<polygon fill="black" stroke="black" points="556.72,-543.05 546.48,-540.32 552.78,-548.84 556.72,-543.05"/>
</g>
<!-- lib:flewt.subordinate -->
<g id="node15" class="node">
<title>lib:flewt.subordinate</title>
<ellipse fill="none" stroke="black" cx="327.99" cy="-522" rx="99.61" ry="18"/>
<text xml:space="preserve" text-anchor="middle" x="327.99" y="-517.33" font-family="Times,serif" font-size="14.00">flewt.subordinate</text>
</g>
<!-- lib:flewt.compile&#45;&gt;lib:flewt.subordinate -->
<g id="edge12" class="edge">
<title>lib:flewt.compile&#45;&gt;lib:flewt.subordinate</title>
<path fill="none" stroke="black" d="M570.73,-580.4C522.4,-568.98 450.83,-552.05 397.91,-539.53"/>
<polygon fill="black" stroke="black" points="398.93,-536.18 388.39,-537.28 397.31,-542.99 398.93,-536.18"/>
</g>
<!-- lib:flewt.typecheck -->
<g id="node16" class="node">
<title>lib:flewt.typecheck</title>
<ellipse fill="none" stroke="black" cx="704.99" cy="-522" rx="90.14" ry="18"/>
<text xml:space="preserve" text-anchor="middle" x="704.99" y="-517.33" font-family="Times,serif" font-size="14.00">flewt.typecheck</text>
</g>
<!-- lib:flewt.compile&#45;&gt;lib:flewt.typecheck -->
<g id="edge13" class="edge">
<title>lib:flewt.compile&#45;&gt;lib:flewt.typecheck</title>
<path fill="none" stroke="black" d="M643.19,-576.41C653.23,-567.73 665.71,-556.95 676.82,-547.34"/>
<polygon fill="black" stroke="black" points="678.95,-550.13 684.23,-540.95 674.37,-544.84 678.95,-550.13"/>
</g>
<!-- lib:flewt.domains -->
<g id="node22" class="node">
<title>lib:flewt.domains</title>
<ellipse fill="none" stroke="black" cx="386.99" cy="-450" rx="81.72" ry="18"/>
<text xml:space="preserve" text-anchor="middle" x="386.99" y="-445.32" font-family="Times,serif" font-size="14.00">flewt.domains</text>
</g>
<!-- lib:flewt.solvers&#45;&gt;lib:flewt.domains -->
<g id="edge59" class="edge">
<title>lib:flewt.solvers&#45;&gt;lib:flewt.domains</title>
<path fill="none" stroke="black" d="M490.58,-505.12C472.04,-495.43 448.1,-482.92 427.91,-472.38"/>
<polygon fill="black" stroke="black" points="429.57,-469.29 419.08,-467.76 426.33,-475.5 429.57,-469.29"/>
</g>
<!-- lib:flewt.modes -->
<g id="node44" class="node">
<title>lib:flewt.modes</title>
<ellipse fill="none" stroke="black" cx="596.99" cy="-450" rx="72.25" ry="18"/>
<text xml:space="preserve" text-anchor="middle" x="596.99" y="-445.32" font-family="Times,serif" font-size="14.00">flewt.modes</text>
</g>
<!-- lib:flewt.solvers&#45;&gt;lib:flewt.modes -->
<g id="edge60" class="edge">
<title>lib:flewt.solvers&#45;&gt;lib:flewt.modes</title>
<path fill="none" stroke="black" d="M539.39,-504.05C548.72,-495.46 560.23,-484.86 570.5,-475.4"/>
<polygon fill="black" stroke="black" points="572.67,-478.16 577.65,-468.81 567.92,-473.01 572.67,-478.16"/>
</g>
<!-- lib:flewt.names -->
<g id="node45" class="node">
<title>lib:flewt.names</title>
<ellipse fill="none" stroke="black" cx="747.99" cy="-306" rx="72.25" ry="18"/>
<text xml:space="preserve" text-anchor="middle" x="747.99" y="-301.32" font-family="Times,serif" font-size="14.00">flewt.names</text>
</g>
<!-- lib:flewt.subordinate&#45;&gt;lib:flewt.names -->
<g id="edge65" class="edge">
<title>lib:flewt.subordinate&#45;&gt;lib:flewt.names</title>
<path fill="none" stroke="black" d="M312.79,-503.78C297.84,-484.67 279.49,-453.69 295.99,-432 341.62,-372.04 557.54,-333.44 673.66,-316.66"/>
<polygon fill="black" stroke="black" points="674.01,-320.14 683.42,-315.27 673.03,-313.21 674.01,-320.14"/>
</g>
<!-- lib:flewt.paths -->
<g id="node26" class="node">
<title>lib:flewt.paths</title>
<ellipse fill="none" stroke="black" cx="647.99" cy="-378" rx="67.52" ry="18"/>
<text xml:space="preserve" text-anchor="middle" x="647.99" y="-373.32" font-family="Times,serif" font-size="14.00">flewt.paths</text>
</g>
<!-- lib:flewt.typecheck&#45;&gt;lib:flewt.paths -->
<g id="edge77" class="edge">
<title>lib:flewt.typecheck&#45;&gt;lib:flewt.paths</title>
<path fill="none" stroke="black" d="M645.43,-508.08C593.11,-496.12 524.06,-478.64 515.99,-468 506.32,-455.25 507.03,-445.25 515.99,-432 530.32,-410.8 554.68,-398.08 578.6,-390.45"/>
<polygon fill="black" stroke="black" points="579.44,-393.85 588.07,-387.7 577.49,-387.12 579.44,-393.85"/>
</g>
<!-- lib:flewt.print -->
<g id="node27" class="node">
<title>lib:flewt.print</title>
<ellipse fill="none" stroke="black" cx="797.99" cy="-378" rx="64.36" ry="18"/>
<text xml:space="preserve" text-anchor="middle" x="797.99" y="-373.32" font-family="Times,serif" font-size="14.00">flewt.print</text>
</g>
<!-- lib:flewt.typecheck&#45;&gt;lib:flewt.print -->
<g id="edge78" class="edge">
<title>lib:flewt.typecheck&#45;&gt;lib:flewt.print</title>
<path fill="none" stroke="black" d="M703,-503.51C701.72,-484.45 702.35,-453.77 715.99,-432 724.69,-418.13 738.49,-407.19 752.31,-398.93"/>
<polygon fill="black" stroke="black" points="753.93,-402.03 760.98,-394.12 750.53,-395.91 753.93,-402.03"/>
</g>
<!-- lib:flewt.global -->
<g id="node33" class="node">
<title>lib:flewt.global</title>
<ellipse fill="none" stroke="black" cx="675.99" cy="-162" rx="70.15" ry="18"/>
<text xml:space="preserve" text-anchor="middle" x="675.99" y="-157.32" font-family="Times,serif" font-size="14.00">flewt.global</text>
</g>
<!-- lib:flewt.lambda&#45;&gt;lib:flewt.global -->
<g id="edge33" class="edge">
<title>lib:flewt.lambda&#45;&gt;lib:flewt.global</title>
<path fill="none" stroke="black" d="M681.26,-215.7C680.53,-208.41 679.66,-199.73 678.84,-191.54"/>
<polygon fill="black" stroke="black" points="682.33,-191.21 677.85,-181.61 675.36,-191.91 682.33,-191.21"/>
</g>
<!-- lib:flewt.table -->
<g id="node35" class="node">
<title>lib:flewt.table</title>
<ellipse fill="none" stroke="black" cx="926.99" cy="-162" rx="64.89" ry="18"/>
<text xml:space="preserve" text-anchor="middle" x="926.99" y="-157.32" font-family="Times,serif" font-size="14.00">flewt.table</text>
</g>
<!-- lib:flewt.lambda&#45;&gt;lib:flewt.table -->
<g id="edge34" class="edge">
<title>lib:flewt.lambda&#45;&gt;lib:flewt.table</title>
<path fill="none" stroke="black" d="M730.33,-219.42C770.91,-207.78 829.4,-191 872.04,-178.76"/>
<polygon fill="black" stroke="black" points="872.97,-182.14 881.62,-176.02 871.04,-175.41 872.97,-182.14"/>
</g>
<!-- lib:flewt.trail -->
<g id="node36" class="node">
<title>lib:flewt.trail</title>
<ellipse fill="none" stroke="black" cx="819.99" cy="-90" rx="60.68" ry="18"/>
<text xml:space="preserve" text-anchor="middle" x="819.99" y="-85.33" font-family="Times,serif" font-size="14.00">flewt.trail</text>
</g>
<!-- lib:flewt.lambda&#45;&gt;lib:flewt.trail -->
<g id="edge35" class="edge">
<title>lib:flewt.lambda&#45;&gt;lib:flewt.trail</title>
<path fill="none" stroke="black" d="M708.82,-216.83C723.25,-207.12 741.08,-193.96 754.99,-180 773.91,-161.01 791.58,-136.16 803.71,-117.55"/>
<polygon fill="black" stroke="black" points="806.61,-119.51 809.04,-109.2 800.71,-115.75 806.61,-119.51"/>
</g>
<!-- lib:flewt.cover -->
<g id="node18" class="node">
<title>lib:flewt.cover</title>
<ellipse fill="none" stroke="black" cx="651.99" cy="-1026" rx="66.99" ry="18"/>
<text xml:space="preserve" text-anchor="middle" x="651.99" y="-1021.33" font-family="Times,serif" font-size="14.00">flewt.cover</text>
</g>
<!-- lib:flewt.unique -->
<g id="node19" class="node">
<title>lib:flewt.unique</title>
<ellipse fill="none" stroke="black" cx="647.99" cy="-954" rx="73.83" ry="18"/>
<text xml:space="preserve" text-anchor="middle" x="647.99" y="-949.33" font-family="Times,serif" font-size="14.00">flewt.unique</text>
</g>
<!-- lib:flewt.cover&#45;&gt;lib:flewt.unique -->
<g id="edge15" class="edge">
<title>lib:flewt.cover&#45;&gt;lib:flewt.unique</title>
<path fill="none" stroke="black" d="M651,-1007.7C650.59,-1000.41 650.09,-991.73 649.62,-983.54"/>
<polygon fill="black" stroke="black" points="653.12,-983.4 649.06,-973.62 646.13,-983.8 653.12,-983.4"/>
</g>
<!-- lib:flewt.worldcheck -->
<g id="node48" class="node">
<title>lib:flewt.worldcheck</title>
<ellipse fill="none" stroke="black" cx="640.99" cy="-882" rx="96.45" ry="18"/>
<text xml:space="preserve" text-anchor="middle" x="640.99" y="-877.33" font-family="Times,serif" font-size="14.00">flewt.worldcheck</text>
</g>
<!-- lib:flewt.unique&#45;&gt;lib:flewt.worldcheck -->
<g id="edge79" class="edge">
<title>lib:flewt.unique&#45;&gt;lib:flewt.worldcheck</title>
<path fill="none" stroke="black" d="M646.26,-935.7C645.53,-928.41 644.66,-919.73 643.84,-911.54"/>
<polygon fill="black" stroke="black" points="647.33,-911.21 642.85,-901.61 640.36,-911.91 647.33,-911.21"/>
</g>
<!-- lib:flewt.flit -->
<g id="node24" class="node">
<title>lib:flewt.flit</title>
<ellipse fill="none" stroke="black" cx="946.99" cy="-450" rx="53.84" ry="18"/>
<text xml:space="preserve" text-anchor="middle" x="946.99" y="-445.32" font-family="Times,serif" font-size="14.00">flewt.flit</text>
</g>
<!-- lib:flewt.frontend&#45;&gt;lib:flewt.flit -->
<g id="edge23" class="edge">
<title>lib:flewt.frontend&#45;&gt;lib:flewt.flit</title>
<path fill="none" stroke="black" d="M985.46,-1223.71C993.34,-1197.18 1006.99,-1144.67 1006.99,-1099 1006.99,-1099 1006.99,-1099 1006.99,-593 1006.99,-549.86 983.2,-504.74 965.58,-477.25"/>
<polygon fill="black" stroke="black" points="968.7,-475.62 960.26,-469.21 962.86,-479.48 968.7,-475.62"/>
</g>
<!-- lib:flewt.modules -->
<g id="node29" class="node">
<title>lib:flewt.modules</title>
<ellipse fill="none" stroke="black" cx="867.99" cy="-882" rx="81.72" ry="18"/>
<text xml:space="preserve" text-anchor="middle" x="867.99" y="-877.33" font-family="Times,serif" font-size="14.00">flewt.modules</text>
</g>
<!-- lib:flewt.frontend&#45;&gt;lib:flewt.modules -->
<g id="edge24" class="edge">
<title>lib:flewt.frontend&#45;&gt;lib:flewt.modules</title>
<path fill="none" stroke="black" d="M966.94,-1224.15C948.48,-1198.59 916.99,-1147.82 916.99,-1099 916.99,-1099 916.99,-1099 916.99,-1025 916.99,-983.14 897.73,-937.96 883.36,-910.07"/>
<polygon fill="black" stroke="black" points="886.64,-908.79 878.86,-901.6 880.47,-912.08 886.64,-908.79"/>
</g>
<!-- lib:flewt.msg -->
<g id="node30" class="node">
<title>lib:flewt.msg</title>
<ellipse fill="none" stroke="black" cx="1288.99" cy="-810" rx="60.68" ry="18"/>
<text xml:space="preserve" text-anchor="middle" x="1288.99" y="-805.33" font-family="Times,serif" font-size="14.00">flewt.msg</text>
</g>
<!-- lib:flewt.frontend&#45;&gt;lib:flewt.msg -->
<g id="edge25" class="edge">
<title>lib:flewt.frontend&#45;&gt;lib:flewt.msg</title>
<path fill="none" stroke="black" d="M1052.28,-1232.84C1112.17,-1224.64 1191.04,-1210.03 1213.99,-1188 1243.54,-1159.63 1237.99,-1139.97 1237.99,-1099 1237.99,-1099 1237.99,-1099 1237.99,-953 1237.99,-910.96 1258.04,-865.82 1272.99,-837.99"/>
<polygon fill="black" stroke="black" points="1275.89,-839.98 1277.69,-829.54 1269.77,-836.58 1275.89,-839.98"/>
</g>
<!-- lib:flewt.prover -->
<g id="node31" class="node">
<title>lib:flewt.prover</title>
<ellipse fill="none" stroke="black" cx="740.99" cy="-1170" rx="72.78" ry="18"/>
<text xml:space="preserve" text-anchor="middle" x="740.99" y="-1165.33" font-family="Times,serif" font-size="14.00">flewt.prover</text>
</g>
<!-- lib:flewt.frontend&#45;&gt;lib:flewt.prover -->
<g id="edge26" class="edge">
<title>lib:flewt.frontend&#45;&gt;lib:flewt.prover</title>
<path fill="none" stroke="black" d="M931.91,-1226.92C893.08,-1215.55 838.35,-1199.52 797.44,-1187.53"/>
<polygon fill="black" stroke="black" points="798.59,-1184.22 788.01,-1184.77 796.63,-1190.94 798.59,-1184.22"/>
</g>
<!-- lib:flewt.style -->
<g id="node32" class="node">
<title>lib:flewt.style</title>
<ellipse fill="none" stroke="black" cx="1082.99" cy="-450" rx="63.83" ry="18"/>
<text xml:space="preserve" text-anchor="middle" x="1082.99" y="-445.32" font-family="Times,serif" font-size="14.00">flewt.style</text>
</g>
<!-- lib:flewt.frontend&#45;&gt;lib:flewt.style -->
<g id="edge27" class="edge">
<title>lib:flewt.frontend&#45;&gt;lib:flewt.style</title>
<path fill="none" stroke="black" d="M1040.11,-1229.27C1105.25,-1212.66 1199.99,-1175.37 1199.99,-1099 1199.99,-1099 1199.99,-1099 1199.99,-881 1199.99,-776.47 1258.74,-749.05 1231.99,-648 1212.58,-574.7 1148.9,-508.67 1111.36,-474.84"/>
<polygon fill="black" stroke="black" points="1113.82,-472.34 1104.01,-468.34 1109.18,-477.59 1113.82,-472.34"/>
</g>
<!-- lib:flewt.ml_yacc_lib_mod&#45;&gt;lib:base -->
<g id="edge43" class="edge">
<title>lib:flewt.ml_yacc_lib_mod&#45;&gt;lib:base</title>
<path fill="none" stroke="black" d="M1387.78,-935.52C1386.02,-908.73 1382.99,-855.91 1382.99,-811 1382.99,-811 1382.99,-811 1382.99,-161 1382.99,-52.76 1218.72,-27.01 1136.6,-20.89"/>
<polygon fill="black" stroke="black" points="1137.07,-17.42 1126.86,-20.24 1136.6,-24.4 1137.07,-17.42"/>
</g>
<!-- lib:flewt.int_inf -->
<g id="node23" class="node">
<title>lib:flewt.int_inf</title>
<ellipse fill="none" stroke="black" cx="431.99" cy="-306" rx="71.2" ry="18"/>
<text xml:space="preserve" text-anchor="middle" x="431.99" y="-301.32" font-family="Times,serif" font-size="14.00">flewt.int_inf</text>
</g>
<!-- lib:flewt.domains&#45;&gt;lib:flewt.int_inf -->
<g id="edge18" class="edge">
<title>lib:flewt.domains&#45;&gt;lib:flewt.int_inf</title>
<path fill="none" stroke="black" d="M392.51,-431.59C400.14,-407.5 414.01,-363.75 423.11,-335.03"/>
<polygon fill="black" stroke="black" points="426.43,-336.14 426.11,-325.55 419.75,-334.03 426.43,-336.14"/>
</g>
<!-- lib:flewt.int_inf&#45;&gt;lib:flewt.basis -->
<g id="edge31" class="edge">
<title>lib:flewt.int_inf&#45;&gt;lib:flewt.basis</title>
<path fill="none" stroke="black" d="M448.77,-288.46C478.51,-259.19 542.45,-196.41 596.99,-144 606.75,-134.63 617.53,-124.39 627,-115.44"/>
<polygon fill="black" stroke="black" points="629.3,-118.09 634.17,-108.68 624.49,-113 629.3,-118.09"/>
</g>
<!-- lib:flewt.index -->
<g id="node25" class="node">
<title>lib:flewt.index</title>
<ellipse fill="none" stroke="black" cx="946.99" cy="-378" rx="66.99" ry="18"/>
<text xml:space="preserve" text-anchor="middle" x="946.99" y="-373.32" font-family="Times,serif" font-size="14.00">flewt.index</text>
</g>
<!-- lib:flewt.flit&#45;&gt;lib:flewt.index -->
<g id="edge19" class="edge">
<title>lib:flewt.flit&#45;&gt;lib:flewt.index</title>
<path fill="none" stroke="black" d="M946.99,-431.7C946.99,-424.41 946.99,-415.73 946.99,-407.54"/>
<polygon fill="black" stroke="black" points="950.49,-407.62 946.99,-397.62 943.49,-407.62 950.49,-407.62"/>
</g>
<!-- lib:flewt.flit&#45;&gt;lib:flewt.paths -->
<g id="edge20" class="edge">
<title>lib:flewt.flit&#45;&gt;lib:flewt.paths</title>
<path fill="none" stroke="black" d="M906.39,-437.77C898.95,-435.79 891.25,-433.79 883.99,-432 867.17,-427.84 773.9,-407.01 709.78,-392.73"/>
<polygon fill="black" stroke="black" points="710.56,-389.32 700.04,-390.57 709.04,-396.15 710.56,-389.32"/>
</g>
<!-- lib:flewt.flit&#45;&gt;lib:flewt.print -->
<g id="edge21" class="edge">
<title>lib:flewt.flit&#45;&gt;lib:flewt.print</title>
<path fill="none" stroke="black" d="M916.84,-434.83C894.84,-424.5 864.73,-410.35 840.32,-398.89"/>
<polygon fill="black" stroke="black" points="841.81,-395.72 831.27,-394.63 838.83,-402.05 841.81,-395.72"/>
</g>
<!-- lib:flewt.index&#45;&gt;lib:flewt.lambda -->
<g id="edge30" class="edge">
<title>lib:flewt.index&#45;&gt;lib:flewt.lambda</title>
<path fill="none" stroke="black" d="M928.58,-360.32C906.32,-340.85 867.11,-308.68 828.99,-288 801.48,-273.07 768.89,-260.78 741.5,-251.81"/>
<polygon fill="black" stroke="black" points="742.92,-248.59 732.33,-248.87 740.78,-255.26 742.92,-248.59"/>
</g>
<!-- lib:flewt.paths&#45;&gt;lib:flewt.lambda -->
<g id="edge54" class="edge">
<title>lib:flewt.paths&#45;&gt;lib:flewt.lambda</title>
<path fill="none" stroke="black" d="M651.22,-359.84C654.7,-341.84 660.62,-312.79 666.99,-288 669.11,-279.78 671.67,-270.91 674.12,-262.84"/>
<polygon fill="black" stroke="black" points="677.38,-264.12 676.99,-253.53 670.69,-262.05 677.38,-264.12"/>
</g>
<!-- lib:flewt.formatter -->
<g id="node28" class="node">
<title>lib:flewt.formatter</title>
<ellipse fill="none" stroke="black" cx="935.99" cy="-234" rx="88.04" ry="18"/>
<text xml:space="preserve" text-anchor="middle" x="935.99" y="-229.32" font-family="Times,serif" font-size="14.00">flewt.formatter</text>
</g>
<!-- lib:flewt.print&#45;&gt;lib:flewt.formatter -->
<g id="edge55" class="edge">
<title>lib:flewt.print&#45;&gt;lib:flewt.formatter</title>
<path fill="none" stroke="black" d="M814.36,-360.15C838.54,-335.28 883.93,-288.57 911.9,-259.79"/>
<polygon fill="black" stroke="black" points="914.13,-262.52 918.59,-252.91 909.11,-257.64 914.13,-262.52"/>
</g>
<!-- lib:flewt.print&#45;&gt;lib:flewt.names -->
<g id="edge56" class="edge">
<title>lib:flewt.print&#45;&gt;lib:flewt.names</title>
<path fill="none" stroke="black" d="M785.89,-360.05C780.11,-351.97 773.08,-342.12 766.64,-333.11"/>
<polygon fill="black" stroke="black" points="769.52,-331.12 760.86,-325.02 763.83,-335.19 769.52,-331.12"/>
</g>
<!-- lib:flewt.formatter&#45;&gt;lib:base -->
<g id="edge22" class="edge">
<title>lib:flewt.formatter&#45;&gt;lib:base</title>
<path fill="none" stroke="black" d="M962.97,-216.41C994.64,-195.37 1046.12,-155.99 1071.99,-108 1082.03,-89.38 1086.76,-65.89 1089,-47.72"/>
<polygon fill="black" stroke="black" points="1092.47,-48.19 1090,-37.89 1085.5,-47.48 1092.47,-48.19"/>
</g>
<!-- lib:flewt.modules&#45;&gt;lib:flewt.typecheck -->
<g id="edge47" class="edge">
<title>lib:flewt.modules&#45;&gt;lib:flewt.typecheck</title>
<path fill="none" stroke="black" d="M835.18,-865.16C794.65,-843.04 730.99,-798.78 730.99,-739 730.99,-739 730.99,-739 730.99,-665 730.99,-624.91 720.84,-579.48 713.22,-551.03"/>
<polygon fill="black" stroke="black" points="716.7,-550.46 710.66,-541.76 709.95,-552.33 716.7,-550.46"/>
</g>
<!-- lib:flewt.msg&#45;&gt;lib:base -->
<g id="edge48" class="edge">
<title>lib:flewt.msg&#45;&gt;lib:base</title>
<path fill="none" stroke="black" d="M1288.99,-791.51C1288.99,-764.71 1288.99,-711.87 1288.99,-667 1288.99,-667 1288.99,-667 1288.99,-161 1288.99,-85.06 1191.61,-45.79 1133.44,-29.11"/>
<polygon fill="black" stroke="black" points="1134.39,-25.75 1123.82,-26.47 1132.54,-32.5 1134.39,-25.75"/>
</g>
<!-- lib:flewt.tomega -->
<g id="node47" class="node">
<title>lib:flewt.tomega</title>
<ellipse fill="none" stroke="black" cx="665.99" cy="-1098" rx="76.99" ry="18"/>
<text xml:space="preserve" text-anchor="middle" x="665.99" y="-1093.33" font-family="Times,serif" font-size="14.00">flewt.tomega</text>
</g>
<!-- lib:flewt.prover&#45;&gt;lib:flewt.tomega -->
<g id="edge57" class="edge">
<title>lib:flewt.prover&#45;&gt;lib:flewt.tomega</title>
<path fill="none" stroke="black" d="M723.22,-1152.41C714.01,-1143.82 702.59,-1133.16 692.38,-1123.63"/>
<polygon fill="black" stroke="black" points="694.96,-1121.25 685.27,-1116.99 690.19,-1126.37 694.96,-1121.25"/>
</g>
<!-- lib:flewt.style&#45;&gt;lib:flewt.index -->
<g id="edge62" class="edge">
<title>lib:flewt.style&#45;&gt;lib:flewt.index</title>
<path fill="none" stroke="black" d="M1053.15,-433.64C1033.66,-423.61 1007.99,-410.4 986.78,-399.48"/>
<polygon fill="black" stroke="black" points="988.61,-396.48 978.11,-395.02 985.4,-402.71 988.61,-396.48"/>
</g>
<!-- lib:flewt.style&#45;&gt;lib:flewt.paths -->
<g id="edge63" class="edge">
<title>lib:flewt.style&#45;&gt;lib:flewt.paths</title>
<path fill="none" stroke="black" d="M1036.41,-437.4C1027.66,-435.43 1018.57,-433.54 1009.99,-432 884.32,-409.49 850.79,-417.79 724.99,-396 719.71,-395.08 714.23,-394.05 708.76,-392.96"/>
<polygon fill="black" stroke="black" points="709.55,-389.55 699.05,-390.95 708.13,-396.4 709.55,-389.55"/>
</g>
<!-- lib:flewt.style&#45;&gt;lib:flewt.print -->
<g id="edge64" class="edge">
<title>lib:flewt.style&#45;&gt;lib:flewt.print</title>
<path fill="none" stroke="black" d="M1035.93,-437.44C986.63,-425.33 909.13,-406.3 856.06,-393.26"/>
<polygon fill="black" stroke="black" points="857.14,-389.92 846.59,-390.94 855.47,-396.72 857.14,-389.92"/>
</g>
<!-- lib:flewt.global&#45;&gt;lib:flewt.basis -->
<g id="edge28" class="edge">
<title>lib:flewt.global&#45;&gt;lib:flewt.basis</title>
<path fill="none" stroke="black" d="M670.31,-143.7C667.85,-136.24 664.93,-127.32 662.18,-118.97"/>
<polygon fill="black" stroke="black" points="665.53,-117.95 659.08,-109.54 658.88,-120.14 665.53,-117.95"/>
</g>
<!-- lib:flewt.heuristic -->
<g id="node34" class="node">
<title>lib:flewt.heuristic</title>
<ellipse fill="none" stroke="black" cx="142.99" cy="-234" rx="83.83" ry="18"/>
<text xml:space="preserve" text-anchor="middle" x="142.99" y="-229.32" font-family="Times,serif" font-size="14.00">flewt.heuristic</text>
</g>
<!-- lib:flewt.heuristic&#45;&gt;lib:flewt.basis -->
<g id="edge29" class="edge">
<title>lib:flewt.heuristic&#45;&gt;lib:flewt.basis</title>
<path fill="none" stroke="black" d="M191.89,-218.94C253.61,-201.24 363.07,-170.01 456.99,-144 503.93,-131 557.31,-116.59 596.49,-106.08"/>
<polygon fill="black" stroke="black" points="597.19,-109.52 605.94,-103.55 595.38,-102.76 597.19,-109.52"/>
</g>
<!-- lib:flewt.table&#45;&gt;lib:flewt.compat -->
<g id="edge66" class="edge">
<title>lib:flewt.table&#45;&gt;lib:flewt.compat</title>
<path fill="none" stroke="black" d="M941.52,-144.05C948.66,-135.71 957.43,-125.49 965.35,-116.25"/>
<polygon fill="black" stroke="black" points="967.77,-118.81 971.62,-108.94 962.45,-114.25 967.77,-118.81"/>
</g>
<!-- lib:flewt.trail&#45;&gt;lib:base -->
<g id="edge76" class="edge">
<title>lib:flewt.trail&#45;&gt;lib:base</title>
<path fill="none" stroke="black" d="M864.74,-77.44C916.07,-64.18 999.54,-42.62 1049.47,-29.72"/>
<polygon fill="black" stroke="black" points="1050.22,-33.15 1059.03,-27.26 1048.47,-26.37 1050.22,-33.15"/>
</g>
<!-- lib:flewt.m2 -->
<g id="node37" class="node">
<title>lib:flewt.m2</title>
<ellipse fill="none" stroke="black" cx="860.99" cy="-738" rx="55.42" ry="18"/>
<text xml:space="preserve" text-anchor="middle" x="860.99" y="-733.33" font-family="Times,serif" font-size="14.00">flewt.m2</text>
</g>
<!-- lib:flewt.opsem -->
<g id="node38" class="node">
<title>lib:flewt.opsem</title>
<ellipse fill="none" stroke="black" cx="906.99" cy="-666" rx="72.25" ry="18"/>
<text xml:space="preserve" text-anchor="middle" x="906.99" y="-661.33" font-family="Times,serif" font-size="14.00">flewt.opsem</text>
</g>
<!-- lib:flewt.m2&#45;&gt;lib:flewt.opsem -->
<g id="edge36" class="edge">
<title>lib:flewt.m2&#45;&gt;lib:flewt.opsem</title>
<path fill="none" stroke="black" d="M872.13,-720.05C877.38,-712.06 883.77,-702.33 889.64,-693.4"/>
<polygon fill="black" stroke="black" points="892.56,-695.33 895.13,-685.05 886.71,-691.49 892.56,-695.33"/>
</g>
<!-- lib:flewt.stream -->
<g id="node39" class="node">
<title>lib:flewt.stream</title>
<ellipse fill="none" stroke="black" cx="1147.99" cy="-666" rx="74.88" ry="18"/>
<text xml:space="preserve" text-anchor="middle" x="1147.99" y="-661.33" font-family="Times,serif" font-size="14.00">flewt.stream</text>
</g>
<!-- lib:flewt.m2&#45;&gt;lib:flewt.stream -->
<g id="edge37" class="edge">
<title>lib:flewt.m2&#45;&gt;lib:flewt.stream</title>
<path fill="none" stroke="black" d="M904.27,-726.44C952.61,-714.65 1031.27,-695.47 1086.11,-682.09"/>
<polygon fill="black" stroke="black" points="1086.73,-685.54 1095.62,-679.77 1085.07,-678.74 1086.73,-685.54"/>
</g>
<!-- lib:flewt.terminate -->
<g id="node40" class="node">
<title>lib:flewt.terminate</title>
<ellipse fill="none" stroke="black" cx="437.99" cy="-594" rx="89.09" ry="18"/>
<text xml:space="preserve" text-anchor="middle" x="437.99" y="-589.33" font-family="Times,serif" font-size="14.00">flewt.terminate</text>
</g>
<!-- lib:flewt.m2&#45;&gt;lib:flewt.terminate -->
<g id="edge38" class="edge">
<title>lib:flewt.m2&#45;&gt;lib:flewt.terminate</title>
<path fill="none" stroke="black" d="M823.45,-724.4C748.7,-699.31 580.94,-642.99 493.45,-613.62"/>
<polygon fill="black" stroke="black" points="494.71,-610.35 484.11,-610.48 492.48,-616.98 494.71,-610.35"/>
</g>
<!-- lib:flewt.thm -->
<g id="node41" class="node">
<title>lib:flewt.thm</title>
<ellipse fill="none" stroke="black" cx="872.99" cy="-522" rx="59.63" ry="18"/>
<text xml:space="preserve" text-anchor="middle" x="872.99" y="-517.33" font-family="Times,serif" font-size="14.00">flewt.thm</text>
</g>
<!-- lib:flewt.m2&#45;&gt;lib:flewt.thm -->
<g id="edge39" class="edge">
<title>lib:flewt.m2&#45;&gt;lib:flewt.thm</title>
<path fill="none" stroke="black" d="M846.17,-720.17C838.53,-710.35 829.99,-697.31 825.99,-684 821.39,-668.68 823.13,-663.74 825.99,-648 832.35,-613.03 847.95,-575.11 859.44,-550.32"/>
<polygon fill="black" stroke="black" points="862.45,-552.13 863.58,-541.6 856.13,-549.13 862.45,-552.13"/>
</g>
<!-- lib:flewt.timing -->
<g id="node42" class="node">
<title>lib:flewt.timing</title>
<ellipse fill="none" stroke="black" cx="1109.99" cy="-594" rx="72.25" ry="18"/>
<text xml:space="preserve" text-anchor="middle" x="1109.99" y="-589.33" font-family="Times,serif" font-size="14.00">flewt.timing</text>
</g>
<!-- lib:flewt.m2&#45;&gt;lib:flewt.timing -->
<g id="edge40" class="edge">
<title>lib:flewt.m2&#45;&gt;lib:flewt.timing</title>
<path fill="none" stroke="black" d="M897.91,-724.22C923.85,-714.62 958.95,-700.35 987.99,-684 1021.87,-664.92 1057.45,-638.08 1081.38,-618.87"/>
<polygon fill="black" stroke="black" points="1083.53,-621.63 1089.08,-612.61 1079.11,-616.2 1083.53,-621.63"/>
</g>
<!-- lib:flewt.opsem&#45;&gt;lib:flewt.compile -->
<g id="edge51" class="edge">
<title>lib:flewt.opsem&#45;&gt;lib:flewt.compile</title>
<path fill="none" stroke="black" d="M857.05,-652.65C809.59,-640.91 738.06,-623.22 686.77,-610.53"/>
<polygon fill="black" stroke="black" points="687.84,-607.19 677.3,-608.19 686.16,-613.98 687.84,-607.19"/>
</g>
<!-- lib:flewt.tabling -->
<g id="node46" class="node">
<title>lib:flewt.tabling</title>
<ellipse fill="none" stroke="black" cx="799.99" cy="-450" rx="74.88" ry="18"/>
<text xml:space="preserve" text-anchor="middle" x="799.99" y="-445.32" font-family="Times,serif" font-size="14.00">flewt.tabling</text>
</g>
<!-- lib:flewt.opsem&#45;&gt;lib:flewt.tabling -->
<g id="edge52" class="edge">
<title>lib:flewt.opsem&#45;&gt;lib:flewt.tabling</title>
<path fill="none" stroke="black" d="M918.64,-647.81C938.33,-616.41 973.15,-548.88 941.99,-504 932.21,-489.91 895.55,-476.42 861.94,-466.58"/>
<polygon fill="black" stroke="black" points="863.2,-463.3 852.62,-463.93 861.29,-470.03 863.2,-463.3"/>
</g>
<!-- lib:flewt.stream&#45;&gt;lib:base -->
<g id="edge61" class="edge">
<title>lib:flewt.stream&#45;&gt;lib:base</title>
<path fill="none" stroke="black" d="M1164.85,-648.22C1173.82,-638.41 1184.34,-625.36 1190.99,-612 1209.15,-575.53 1212.99,-563.75 1212.99,-523 1212.99,-523 1212.99,-523 1212.99,-161 1212.99,-106.04 1159.76,-61.73 1123.62,-37.98"/>
<polygon fill="black" stroke="black" points="1125.53,-35.05 1115.22,-32.65 1121.78,-40.96 1125.53,-35.05"/>
</g>
<!-- lib:flewt.terminate&#45;&gt;lib:flewt.solvers -->
<g id="edge70" class="edge">
<title>lib:flewt.terminate&#45;&gt;lib:flewt.solvers</title>
<path fill="none" stroke="black" d="M458.08,-576.05C468.38,-567.37 481.1,-556.64 492.4,-547.11"/>
<polygon fill="black" stroke="black" points="494.54,-549.89 499.93,-540.76 490.03,-544.54 494.54,-549.89"/>
</g>
<!-- lib:flewt.terminate&#45;&gt;lib:flewt.subordinate -->
<g id="edge71" class="edge">
<title>lib:flewt.terminate&#45;&gt;lib:flewt.subordinate</title>
<path fill="none" stroke="black" d="M411.92,-576.41C397.51,-567.24 379.38,-555.7 363.67,-545.71"/>
<polygon fill="black" stroke="black" points="365.85,-542.94 355.53,-540.53 362.09,-548.85 365.85,-542.94"/>
</g>
<!-- lib:flewt.thm&#45;&gt;lib:flewt.modes -->
<g id="edge72" class="edge">
<title>lib:flewt.thm&#45;&gt;lib:flewt.modes</title>
<path fill="none" stroke="black" d="M828.34,-509.68C781.86,-497.89 708.79,-479.35 657.22,-466.28"/>
<polygon fill="black" stroke="black" points="658.26,-462.93 647.7,-463.86 656.54,-469.71 658.26,-462.93"/>
</g>
<!-- lib:flewt.thm&#45;&gt;lib:flewt.tabling -->
<g id="edge73" class="edge">
<title>lib:flewt.thm&#45;&gt;lib:flewt.tabling</title>
<path fill="none" stroke="black" d="M855.69,-504.41C846.82,-495.91 835.84,-485.37 825.97,-475.91"/>
<polygon fill="black" stroke="black" points="828.41,-473.4 818.77,-469 823.56,-478.45 828.41,-473.4"/>
</g>
<!-- lib:flewt.timing&#45;&gt;lib:flewt.compat -->
<g id="edge74" class="edge">
<title>lib:flewt.timing&#45;&gt;lib:flewt.compat</title>
<path fill="none" stroke="black" d="M1123.46,-576.21C1142.5,-550.74 1174.99,-500.07 1174.99,-451 1174.99,-451 1174.99,-451 1174.99,-233 1174.99,-167.24 1100.83,-128.07 1045.67,-108.03"/>
<polygon fill="black" stroke="black" points="1046.94,-104.76 1036.35,-104.77 1044.63,-111.37 1046.94,-104.76"/>
</g>
<!-- lib:flewt.meta -->
<g id="node43" class="node">
<title>lib:flewt.meta</title>
<ellipse fill="none" stroke="black" cx="637.99" cy="-810" rx="64.89" ry="18"/>
<text xml:space="preserve" text-anchor="middle" x="637.99" y="-805.33" font-family="Times,serif" font-size="14.00">flewt.meta</text>
</g>
<!-- lib:flewt.meta&#45;&gt;lib:flewt.heuristic -->
<g id="edge41" class="edge">
<title>lib:flewt.meta&#45;&gt;lib:flewt.heuristic</title>
<path fill="none" stroke="black" d="M578.92,-802.4C459.37,-787.38 199.99,-745.74 199.99,-667 199.99,-667 199.99,-667 199.99,-593 199.99,-466.93 130.25,-448.43 109.99,-324 107.42,-308.21 105.59,-303.38 109.99,-288 112.66,-278.66 117.5,-269.37 122.67,-261.24"/>
<polygon fill="black" stroke="black" points="125.4,-263.44 128.15,-253.21 119.62,-259.49 125.4,-263.44"/>
</g>
<!-- lib:flewt.meta&#45;&gt;lib:flewt.m2 -->
<g id="edge42" class="edge">
<title>lib:flewt.meta&#45;&gt;lib:flewt.m2</title>
<path fill="none" stroke="black" d="M679.94,-795.83C717.22,-784.13 771.78,-767 811.26,-754.61"/>
<polygon fill="black" stroke="black" points="812.28,-757.96 820.78,-751.62 810.19,-751.28 812.28,-757.96"/>
</g>
<!-- lib:flewt.modes&#45;&gt;lib:flewt.index -->
<g id="edge44" class="edge">
<title>lib:flewt.modes&#45;&gt;lib:flewt.index</title>
<path fill="none" stroke="black" d="M653.76,-438.52C709.24,-428.15 796.05,-411.63 870.99,-396 875.89,-394.98 880.96,-393.9 886.05,-392.8"/>
<polygon fill="black" stroke="black" points="886.66,-396.24 895.68,-390.69 885.17,-389.41 886.66,-396.24"/>
</g>
<!-- lib:flewt.modes&#45;&gt;lib:flewt.paths -->
<g id="edge45" class="edge">
<title>lib:flewt.modes&#45;&gt;lib:flewt.paths</title>
<path fill="none" stroke="black" d="M609.34,-432.05C615.29,-423.89 622.56,-413.91 629.18,-404.82"/>
<polygon fill="black" stroke="black" points="631.81,-407.16 634.87,-397.01 626.15,-403.03 631.81,-407.16"/>
</g>
<!-- lib:flewt.modes&#45;&gt;lib:flewt.print -->
<g id="edge46" class="edge">
<title>lib:flewt.modes&#45;&gt;lib:flewt.print</title>
<path fill="none" stroke="black" d="M637.67,-434.83C669.55,-423.73 714.06,-408.23 748.09,-396.38"/>
<polygon fill="black" stroke="black" points="749.02,-399.76 757.32,-393.17 746.72,-393.15 749.02,-399.76"/>
</g>
<!-- lib:flewt.names&#45;&gt;lib:flewt.lambda -->
<g id="edge49" class="edge">
<title>lib:flewt.names&#45;&gt;lib:flewt.lambda</title>
<path fill="none" stroke="black" d="M732.26,-288.05C724.43,-279.63 714.82,-269.28 706.17,-259.97"/>
<polygon fill="black" stroke="black" points="708.98,-257.84 699.61,-252.9 703.85,-262.61 708.98,-257.84"/>
</g>
<!-- lib:flewt.tabling&#45;&gt;lib:flewt.index -->
<g id="edge67" class="edge">
<title>lib:flewt.tabling&#45;&gt;lib:flewt.index</title>
<path fill="none" stroke="black" d="M832.62,-433.46C853.89,-423.34 881.86,-410.02 904.81,-399.09"/>
<polygon fill="black" stroke="black" points="906.07,-402.36 913.6,-394.9 903.06,-396.04 906.07,-402.36"/>
</g>
<!-- lib:flewt.tabling&#45;&gt;lib:flewt.paths -->
<g id="edge68" class="edge">
<title>lib:flewt.tabling&#45;&gt;lib:flewt.paths</title>
<path fill="none" stroke="black" d="M766.26,-433.46C744.09,-423.25 714.88,-409.8 691.04,-398.82"/>
<polygon fill="black" stroke="black" points="692.77,-395.77 682.22,-394.76 689.84,-402.13 692.77,-395.77"/>
</g>
<!-- lib:flewt.tabling&#45;&gt;lib:flewt.print -->
<g id="edge69" class="edge">
<title>lib:flewt.tabling&#45;&gt;lib:flewt.print</title>
<path fill="none" stroke="black" d="M799.5,-431.7C799.29,-424.41 799.04,-415.73 798.81,-407.54"/>
<polygon fill="black" stroke="black" points="802.31,-407.51 798.52,-397.62 795.31,-407.71 802.31,-407.51"/>
</g>
<!-- lib:flewt.tomega&#45;&gt;lib:flewt.cover -->
<g id="edge75" class="edge">
<title>lib:flewt.tomega&#45;&gt;lib:flewt.cover</title>
<path fill="none" stroke="black" d="M662.53,-1079.7C661.06,-1072.32 659.3,-1063.52 657.64,-1055.25"/>
<polygon fill="black" stroke="black" points="661.1,-1054.71 655.71,-1045.59 654.24,-1056.08 661.1,-1054.71"/>
</g>
<!-- lib:flewt.worldcheck&#45;&gt;lib:flewt.meta -->
<g id="edge80" class="edge">
<title>lib:flewt.worldcheck&#45;&gt;lib:flewt.meta</title>
<path fill="none" stroke="black" d="M640.25,-863.7C639.94,-856.41 639.57,-847.73 639.21,-839.54"/>
<polygon fill="black" stroke="black" points="642.71,-839.46 638.79,-829.62 635.72,-839.76 642.71,-839.46"/>
</g>
</g>
</svg>
